<svg width="24" height="24" viewBox="0 0 24 24" fill="none" xmlns="http://www.w3.org/2000/svg">
<path fill-rule="evenodd" clip-rule="evenodd" d="M3.4498 4.79988C3.44981 3.0602 4.86011 1.6499 6.5998 1.6499H15.6695C16.2194 1.6499 16.7356 1.8813 17.1056 2.27048C17.4508 2.63375 17.9887 3.18333 18.5002 3.64097C18.9429 4.03705 19.6195 4.72942 20.01 5.1345C20.36 5.49753 20.5501 5.98003 20.5501 6.47775L20.5501 7.19321C20.5501 7.19544 20.5501 7.19767 20.5501 7.1999C20.5501 7.20215 20.5501 7.20439 20.5501 7.20663L20.5498 19.2C20.5497 20.9396 19.1394 22.3499 17.3997 22.3499L6.59969 22.3498C4.85999 22.3498 3.4497 20.9395 3.44971 19.1998L3.4498 4.79988ZM19.0492 6.4499C19.0428 6.34466 18.9999 6.248 18.9301 6.17557C18.533 5.76368 17.8945 5.11179 17.5 4.75883C16.9433 4.26076 16.3728 3.67681 16.0183 3.30388C15.943 3.22469 15.8484 3.17483 15.7501 3.15714V5.9999C15.7501 6.24843 15.9516 6.4499 16.2001 6.4499H19.0492ZM14.2501 3.1499V5.9999C14.2501 7.07686 15.1231 7.9499 16.2001 7.9499H19.05L19.0498 19.1999C19.0497 20.1112 18.311 20.8499 17.3997 20.8499L6.5997 20.8498C5.68843 20.8498 4.9497 20.1111 4.94971 19.1998L4.9498 4.79989C4.94981 3.88863 5.68853 3.1499 6.5998 3.1499H14.2501ZM7.65008 7.1999C7.65008 6.78569 7.98587 6.4499 8.40008 6.4499H10.8001C11.2143 6.4499 11.5501 6.78569 11.5501 7.1999C11.5501 7.61412 11.2143 7.9499 10.8001 7.9499H8.40008C7.98587 7.9499 7.65008 7.61412 7.65008 7.1999ZM7.65008 10.7999C7.65008 10.3857 7.98587 10.0499 8.40008 10.0499H15.6001C16.0143 10.0499 16.3501 10.3857 16.3501 10.7999C16.3501 11.2141 16.0143 11.5499 15.6001 11.5499H8.40008C7.98587 11.5499 7.65008 11.2141 7.65008 10.7999ZM7.65008 14.3999C7.65008 13.9857 7.98587 13.6499 8.40008 13.6499H15.6001C16.0143 13.6499 16.3501 13.9857 16.3501 14.3999C16.3501 14.8141 16.0143 15.1499 15.6001 15.1499H8.40008C7.98587 15.1499 7.65008 14.8141 7.65008 14.3999Z" fill="currentColor"/>
</svg>
