<svg width="24" height="24" viewBox="0 0 24 24" fill="none" xmlns="http://www.w3.org/2000/svg">
<path fill-rule="evenodd" clip-rule="evenodd" d="M18.3924 5.79256C17.8947 5.58892 17.3614 5.48645 16.8236 5.49112C16.2859 5.49579 15.7544 5.60752 15.2603 5.81977C14.7662 6.03203 14.3193 6.34057 13.9457 6.72738L13.9364 6.73699L12.53 8.14211C12.2371 8.4347 11.7626 8.4347 11.4697 8.14211L10.0633 6.73691C9.30386 5.97765 8.27377 5.55097 7.19985 5.55097C6.12601 5.55097 5.09614 5.97744 4.33666 6.7366C3.57751 7.49607 3.15088 8.52611 3.15088 9.59995C3.15088 10.6738 3.57739 11.7038 4.33662 12.4633C4.33661 12.4632 4.33664 12.4633 4.33662 12.4633L11.9999 20.1276L19.6723 12.454C20.0592 12.0804 20.3678 11.6336 20.58 11.1395C20.7923 10.6454 20.904 10.1139 20.9087 9.57616C20.9134 9.0384 20.8109 8.5051 20.6072 8.00737C20.4036 7.50964 20.1029 7.05745 19.7226 6.67718C19.3424 6.29692 18.8902 5.99619 18.3924 5.79256ZM16.8106 3.99118C17.5475 3.98477 18.2784 4.1252 18.9604 4.40426C19.6425 4.68331 20.2622 5.09542 20.7833 5.61652C21.3044 6.13763 21.7165 6.7573 21.9955 7.43937C22.2746 8.12145 22.415 8.85227 22.4086 9.58919C22.4022 10.3261 22.2491 11.0544 21.9582 11.7315C21.6683 12.4066 21.2472 13.0173 20.7194 13.5283L12.5302 21.7186C12.3896 21.8593 12.1988 21.9383 11.9999 21.9383C11.8009 21.9383 11.6101 21.8593 11.4695 21.7186L3.27588 13.5238C2.23542 12.4831 1.65088 11.0716 1.65088 9.59995C1.65088 8.12829 2.23538 6.71688 3.27584 5.6761C4.31662 4.63564 5.72819 4.05097 7.19985 4.05097C8.67144 4.05097 10.0828 4.63542 11.1236 5.67579C11.1235 5.67574 11.1236 5.67584 11.1236 5.67579L11.9999 6.55134L12.8716 5.68033C13.3826 5.15259 13.9933 4.73151 14.6683 4.44155C15.3454 4.15068 16.0737 3.99758 16.8106 3.99118Z" fill="currentColor"/>
</svg>
