<svg width="24" height="24" viewBox="0 0 24 24" fill="none" xmlns="http://www.w3.org/2000/svg">
<g id="Home_Regular">
<path id="Icon (Stroke)" fill-rule="evenodd" clip-rule="evenodd" d="M12.2753 3.83244C12.1127 3.72252 11.8873 3.72252 11.7247 3.83244L3.92472 9.1073C3.80591 9.18764 3.75 9.30577 3.75 9.41605V19.2882C3.75 19.7843 4.18414 20.25 4.8 20.25H19.2C19.8159 20.25 20.25 19.7843 20.25 19.2882V9.41605C20.25 9.30577 20.1941 9.18764 20.0753 9.1073L12.2753 3.83244ZM10.8844 2.5899C11.5546 2.1367 12.4454 2.1367 13.1156 2.5899L20.9156 7.86476C21.4299 8.21257 21.75 8.78754 21.75 9.41605V19.2882C21.75 20.6829 20.5724 21.75 19.2 21.75H4.8C3.42763 21.75 2.25 20.6829 2.25 19.2882V9.41605C2.25 8.78754 2.57012 8.21256 3.08443 7.86476L10.8844 2.5899ZM6.75 17.0625C6.75 16.6483 7.08579 16.3125 7.5 16.3125H16.5C16.9142 16.3125 17.25 16.6483 17.25 17.0625C17.25 17.4767 16.9142 17.8125 16.5 17.8125H7.5C7.08579 17.8125 6.75 17.4767 6.75 17.0625Z" fill="currentColor"/>
</g>
</svg>
