<svg width="24" height="24" viewBox="0 0 24 24" fill="none" xmlns="http://www.w3.org/2000/svg">
<g id="List_Regular">
<path id="Icon (Stroke)" fill-rule="evenodd" clip-rule="evenodd" d="M2.8501 6C2.8501 5.58579 3.18588 5.25 3.6001 5.25H21.6001C22.0143 5.25 22.3501 5.58579 22.3501 6C22.3501 6.41421 22.0143 6.75 21.6001 6.75H3.6001C3.18588 6.75 2.8501 6.41421 2.8501 6ZM2.8501 12.48C2.8501 12.0658 3.18588 11.73 3.6001 11.73H21.6001C22.0143 11.73 22.3501 12.0658 22.3501 12.48C22.3501 12.8942 22.0143 13.23 21.6001 13.23H3.6001C3.18588 13.23 2.8501 12.8942 2.8501 12.48ZM2.8501 18.96C2.8501 18.5458 3.18588 18.21 3.6001 18.21H21.6001C22.0143 18.21 22.3501 18.5458 22.3501 18.96C22.3501 19.3742 22.0143 19.71 21.6001 19.71H3.6001C3.18588 19.71 2.8501 19.3742 2.8501 18.96Z" fill="#1D263A"/>
</g>
</svg>
