<svg width="24" height="24" viewBox="0 0 24 24" fill="none" xmlns="http://www.w3.org/2000/svg">
<g id="Map_Regular">
<path id="Icon (Stroke)" fill-rule="evenodd" clip-rule="evenodd" d="M2.58413 3.37586C2.79286 3.23678 3.05731 3.21125 3.2888 3.30783L8.49647 5.48065L14.4819 3.29548C14.648 3.23484 14.8302 3.23484 14.9963 3.29549L21.2572 5.5812C21.5531 5.68924 21.75 5.97069 21.75 6.28572V20C21.75 20.2448 21.6305 20.4742 21.4299 20.6146C21.2293 20.7549 20.9728 20.7885 20.7428 20.7045L14.7391 18.5127L8.73547 20.7045C8.55838 20.7692 8.36345 20.7648 8.18947 20.6922L2.7112 18.4065C2.4319 18.2899 2.25 18.0169 2.25 17.7143V4C2.25 3.74917 2.37539 3.51495 2.58413 3.37586ZM14.7391 4.79842L8.73547 6.99024C8.55838 7.05488 8.36345 7.05048 8.18947 6.97789L3.75 5.12559V17.2145L8.49647 19.1949L14.4819 17.0098C14.648 16.9491 14.8302 16.9491 14.9963 17.0098L20.25 18.9278V6.81033L14.7391 4.79842ZM14.8125 7.08334C15.2267 7.08334 15.5625 7.41912 15.5625 7.83334V13.8571C15.5625 14.2714 15.2267 14.6071 14.8125 14.6071C14.3983 14.6071 14.0625 14.2714 14.0625 13.8571V7.83334C14.0625 7.41912 14.3983 7.08334 14.8125 7.08334ZM8.625 9.27381C9.03921 9.27381 9.375 9.6096 9.375 10.0238V16.0476C9.375 16.4618 9.03921 16.7976 8.625 16.7976C8.21079 16.7976 7.875 16.4618 7.875 16.0476V10.0238C7.875 9.6096 8.21079 9.27381 8.625 9.27381Z" fill="currentColor"/>
</g>
</svg>
