<svg width="24" height="24" viewBox="0 0 24 24" fill="none" xmlns="http://www.w3.org/2000/svg">
<g id="Target_Regular">
<path id="Icon (Stroke)" fill-rule="evenodd" clip-rule="evenodd" d="M3.78363 11.25H6.375C6.78921 11.25 7.125 11.5858 7.125 12C7.125 12.4142 6.78921 12.75 6.375 12.75H3.78363C4.14029 16.7079 7.29215 19.8597 11.25 20.2164V17.625C11.25 17.2108 11.5858 16.875 12 16.875C12.4142 16.875 12.75 17.2108 12.75 17.625V20.2164C16.7079 19.8597 19.8597 16.7079 20.2164 12.75H17.625C17.2108 12.75 16.875 12.4142 16.875 12C16.875 11.5858 17.2108 11.25 17.625 11.25H20.2164C19.8597 7.29215 16.7079 4.14029 12.75 3.78363V6.375C12.75 6.78921 12.4142 7.125 12 7.125C11.5858 7.125 11.25 6.78921 11.25 6.375V3.78363C7.29215 4.14029 4.14029 7.29215 3.78363 11.25ZM2.25 12C2.25 6.61522 6.61522 2.25 12 2.25C17.3848 2.25 21.75 6.61522 21.75 12C21.75 17.3848 17.3848 21.75 12 21.75C6.61522 21.75 2.25 17.3848 2.25 12Z" fill="currentColor"/>
</g>
</svg>
