<svg width="308" height="48" viewBox="0 0 308 48" fill="none" xmlns="http://www.w3.org/2000/svg">
<rect width="308" height="48" rx="12" fill="black"/>
<rect width="61" height="48" transform="translate(20)" fill="black"/>
<path d="M51.9381 14.1308C52.9487 12.8666 53.6402 11.1472 53.4485 9.40259C51.9858 9.46706 50.1564 10.4144 49.1029 11.6504C48.1712 12.7397 47.3385 14.5248 47.5538 16.2037C49.1969 16.3263 50.8838 15.3748 51.9381 14.1308Z" fill="white"/>
<path d="M58.5455 24.7862C58.5118 21.0592 61.5965 19.2463 61.7381 19.1621C59.9909 16.6147 57.2829 16.2666 56.331 16.2388C54.0567 15.9994 51.8506 17.5999 50.6921 17.5999C49.5337 17.5999 47.7258 16.2619 45.8034 16.3011C43.3289 16.3395 41.0141 17.7718 39.7444 19.9969C37.1241 24.5329 39.0781 31.1991 41.5889 34.8658C42.8447 36.6627 44.3116 38.6661 46.2324 38.5957C48.111 38.519 48.8135 37.398 51.0807 37.398C53.3478 37.398 53.9863 38.5957 55.9454 38.5498C57.9618 38.519 59.2315 36.747 60.4435 34.9341C61.8948 32.878 62.4776 30.849 62.5004 30.7444C62.4545 30.7293 58.5851 29.2527 58.5463 24.7862" fill="white"/>
<rect width="121" height="38" transform="translate(91 5)" fill="black"/>
<path d="M104.778 17.42C106.623 17.42 107.808 19.325 107.808 22.46C107.808 25.61 106.623 27.515 104.778 27.515C102.948 27.515 101.778 25.61 101.778 22.46C101.778 19.325 102.948 17.42 104.778 17.42ZM104.778 19.295C104.028 19.295 103.593 20.345 103.593 22.46C103.593 24.59 104.028 25.625 104.778 25.625C105.543 25.625 105.978 24.59 105.978 22.46C105.978 20.345 105.543 19.295 104.778 19.295ZM111.693 16.445H113.598V30.335H111.693V16.445ZM110.028 21.74H112.323V23.345H110.028V21.74ZM108.648 16.655H110.523V29.705H108.648V16.655ZM116.552 16.82H126.902V18.305H116.552V16.82ZM116.657 20.075H126.797V21.56H116.657V20.075ZM118.322 17.405H120.317V21.035H118.322V17.405ZM123.137 17.405H125.132V21.035H123.137V17.405ZM115.457 22.28H128.012V23.84H115.457V22.28ZM116.897 24.605H126.497V28.055H118.877V29.345H116.912V26.72H124.532V26.03H116.897V24.605ZM116.912 28.79H126.857V30.245H116.912V28.79ZM129.271 27.185H141.841V28.805H129.271V27.185ZM134.536 24.56H136.531V27.845H134.536V24.56ZM130.681 17.345H140.431V21.965H132.691V24.305H130.711V20.405H138.451V18.92H130.681V17.345ZM130.711 23.51H140.746V25.115H130.711V23.51ZM152.702 20.105H155.522V21.695H152.702V20.105ZM152.627 23.57H155.462V25.16H152.627V23.57ZM157.412 16.445H159.317V30.335H157.412V16.445ZM154.547 16.745H156.407V29.72H154.547V16.745ZM151.412 18.08H153.332C153.332 22.025 152.147 25.175 148.277 27.455L147.152 26.06C150.287 24.155 151.412 21.845 151.412 18.485V18.08ZM147.947 18.08H152.087V19.67H147.947V18.08ZM161.145 23.18H173.715V24.77H161.145V23.18ZM166.41 21.38H168.39V23.87H166.41V21.38ZM166.38 16.685H168.09V17.105C168.09 19.67 166.05 21.68 162.51 22.19L161.775 20.63C164.895 20.255 166.38 18.665 166.38 17.105V16.685ZM166.71 16.685H168.42V17.105C168.42 18.725 169.875 20.255 173.025 20.63L172.29 22.19C168.75 21.665 166.71 19.73 166.71 17.105V16.685ZM162.54 25.745H172.185V30.335H170.19V27.305H162.54V25.745ZM183.854 16.445H185.834V30.335H183.854V16.445ZM185.384 21.86H187.844V23.525H185.384V21.86ZM174.884 18.5H182.969V20.09H174.884V18.5ZM178.949 20.87C180.974 20.87 182.474 22.25 182.474 24.185C182.474 26.12 180.974 27.5 178.949 27.5C176.924 27.5 175.424 26.12 175.424 24.185C175.424 22.25 176.924 20.87 178.949 20.87ZM178.949 22.49C178.004 22.49 177.329 23.12 177.329 24.185C177.329 25.25 178.004 25.88 178.949 25.88C179.894 25.88 180.569 25.25 180.569 24.185C180.569 23.12 179.894 22.49 178.949 22.49ZM177.944 16.67H179.939V19.1H177.944V16.67ZM198.313 16.445H200.323V30.335H198.313V16.445ZM194.218 17.885H196.198C196.198 22.13 194.758 25.61 189.823 27.995L188.788 26.405C192.778 24.485 194.218 21.965 194.218 18.245V17.885ZM189.523 17.885H195.163V19.46H189.523V17.885Z" fill="white"/>
</svg>
