<svg width="308" height="48" viewBox="0 0 308 48" fill="none" xmlns="http://www.w3.org/2000/svg">
<rect width="308" height="48" rx="12" fill="black"/>
<path d="M103.818 14.9532C104.745 13.7944 105.379 12.2184 105.203 10.6191C103.862 10.6782 102.185 11.5466 101.219 12.6796C100.365 13.6781 99.6021 15.3144 99.7995 16.8534C101.306 16.9658 102.852 16.0936 103.818 14.9532Z" fill="white"/>
<path d="M109.875 24.7204C109.844 21.3041 112.671 19.6423 112.801 19.5651C111.2 17.23 108.717 16.9109 107.845 16.8854C105.76 16.666 103.738 18.1331 102.676 18.1331C101.614 18.1331 99.9569 16.9066 98.1947 16.9426C95.9264 16.9777 93.8045 18.2907 92.6407 20.3303C90.2388 24.4882 92.03 30.5989 94.3314 33.9599C95.4826 35.607 96.8272 37.4434 98.5879 37.3789C100.31 37.3086 100.954 36.2811 103.032 36.2811C105.11 36.2811 105.696 37.3789 107.491 37.3368C109.34 37.3086 110.504 35.6843 111.615 34.0225C112.945 32.1378 113.479 30.2779 113.5 30.1821C113.458 30.1682 109.911 28.8146 109.875 24.7204" fill="white"/>
<path d="M125.393 18.192C127.115 18.192 128.221 19.97 128.221 22.896C128.221 25.836 127.115 27.614 125.393 27.614C123.685 27.614 122.593 25.836 122.593 22.896C122.593 19.97 123.685 18.192 125.393 18.192ZM125.393 19.942C124.693 19.942 124.287 20.922 124.287 22.896C124.287 24.884 124.693 25.85 125.393 25.85C126.107 25.85 126.513 24.884 126.513 22.896C126.513 20.922 126.107 19.942 125.393 19.942ZM131.847 17.282H133.625V30.246H131.847V17.282ZM130.293 22.224H132.435V23.722H130.293V22.224ZM129.005 17.478H130.755V29.658H129.005V17.478ZM136.382 17.632H146.042V19.018H136.382V17.632ZM136.48 20.67H145.944V22.056H136.48V20.67ZM138.034 18.178H139.896V21.566H138.034V18.178ZM142.528 18.178H144.39V21.566H142.528V18.178ZM135.36 22.728H147.078V24.184H135.36V22.728ZM136.704 24.898H145.664V28.118H138.552V29.322H136.718V26.872H143.83V26.228H136.704V24.898ZM136.718 28.804H146V30.162H136.718V28.804ZM148.253 27.306H159.985V28.818H148.253V27.306ZM153.167 24.856H155.029V27.922H153.167V24.856ZM149.569 18.122H158.669V22.434H151.445V24.618H149.597V20.978H156.821V19.592H149.569V18.122ZM149.597 23.876H158.963V25.374H149.597V23.876ZM170.121 20.698H172.753V22.182H170.121V20.698ZM170.051 23.932H172.697V25.416H170.051V23.932ZM174.517 17.282H176.295V30.246H174.517V17.282ZM171.843 17.562H173.579V29.672H171.843V17.562ZM168.917 18.808H170.709C170.709 22.49 169.603 25.43 165.991 27.558L164.941 26.256C167.867 24.478 168.917 22.322 168.917 19.186V18.808ZM165.683 18.808H169.547V20.292H165.683V18.808ZM178.002 23.568H189.734V25.052H178.002V23.568ZM182.916 21.888H184.764V24.212H182.916V21.888ZM182.888 17.506H184.484V17.898C184.484 20.292 182.58 22.168 179.276 22.644L178.59 21.188C181.502 20.838 182.888 19.354 182.888 17.898V17.506ZM183.196 17.506H184.792V17.898C184.792 19.41 186.15 20.838 189.09 21.188L188.404 22.644C185.1 22.154 183.196 20.348 183.196 17.898V17.506ZM179.304 25.962H188.306V30.246H186.444V27.418H179.304V25.962ZM199.197 17.282H201.045V30.246H199.197V17.282ZM200.625 22.336H202.921V23.89H200.625V22.336ZM190.825 19.2H198.371V20.684H190.825V19.2ZM194.619 21.412C196.509 21.412 197.909 22.7 197.909 24.506C197.909 26.312 196.509 27.6 194.619 27.6C192.729 27.6 191.329 26.312 191.329 24.506C191.329 22.7 192.729 21.412 194.619 21.412ZM194.619 22.924C193.737 22.924 193.107 23.512 193.107 24.506C193.107 25.5 193.737 26.088 194.619 26.088C195.501 26.088 196.131 25.5 196.131 24.506C196.131 23.512 195.501 22.924 194.619 22.924ZM193.681 17.492H195.543V19.76H193.681V17.492ZM212.692 17.282H214.568V30.246H212.692V17.282ZM208.87 18.626H210.718C210.718 22.588 209.374 25.836 204.768 28.062L203.802 26.578C207.526 24.786 208.87 22.434 208.87 18.962V18.626ZM204.488 18.626H209.752V20.096H204.488V18.626Z" fill="white"/>
</svg>
