<svg width="308" height="48" viewBox="0 0 308 48" fill="none" xmlns="http://www.w3.org/2000/svg">
<rect width="308" height="48" rx="12" fill="#FEE500"/>
<rect x="20" width="61" height="48" rx="12" fill="#FEE500"/>
<path fill-rule="evenodd" clip-rule="evenodd" d="M50.5038 11.1157C42.9186 11.1157 36.7681 15.8927 36.7681 21.7762C36.7681 25.439 39.1489 28.6669 42.766 30.5899L41.2398 36.1834C41.1024 36.6794 41.6671 37.0762 42.1021 36.7862L48.7792 32.3526C49.3439 32.4061 49.9162 32.4366 50.4961 32.4366C58.0813 32.4366 64.2318 27.6596 64.2318 21.7762C64.2318 15.8927 58.0889 11.1157 50.5038 11.1157Z" fill="black"/>
<rect width="135" height="38" transform="translate(86 5)" fill="#FEE500"/>
<path d="M102.009 17.78H103.959C103.959 22.07 102.939 25.64 97.7637 28.265L96.6987 26.75C101.019 24.575 102.009 21.92 102.009 18.02V17.78ZM97.5537 17.78H103.194V19.355H97.5537V17.78ZM102.054 21.185V22.715L97.0737 23.195L96.8337 21.485L102.054 21.185ZM105.639 16.43H107.649V30.32H105.639V16.43ZM107.124 21.74H109.569V23.375H107.124V21.74ZM115.808 17.78H117.758C117.758 22.07 116.738 25.64 111.563 28.265L110.498 26.75C114.818 24.575 115.808 21.92 115.808 18.02V17.78ZM111.353 17.78H116.993V19.355H111.353V17.78ZM115.853 21.185V22.715L110.873 23.195L110.633 21.485L115.853 21.185ZM119.438 16.43H121.448V30.32H119.438V16.43ZM120.923 21.74H123.368V23.375H120.923V21.74ZM129.636 24.26H131.631V27.425H129.636V24.26ZM130.641 17.15C133.611 17.15 135.831 18.665 135.831 20.975C135.831 23.315 133.611 24.815 130.641 24.815C127.671 24.815 125.451 23.315 125.451 20.975C125.451 18.665 127.671 17.15 130.641 17.15ZM130.641 18.725C128.736 18.725 127.416 19.565 127.416 20.975C127.416 22.415 128.736 23.24 130.641 23.24C132.546 23.24 133.866 22.415 133.866 20.975C133.866 19.565 132.546 18.725 130.641 18.725ZM124.371 27.11H136.941V28.73H124.371V27.11ZM138.17 27.185H150.74V28.805H138.17V27.185ZM143.435 24.56H145.43V27.845H143.435V24.56ZM139.58 17.345H149.33V21.965H141.59V24.305H139.61V20.405H147.35V18.92H139.58V17.345ZM139.61 23.51H149.645V25.115H139.61V23.51ZM161.601 20.105H164.421V21.695H161.601V20.105ZM161.526 23.57H164.361V25.16H161.526V23.57ZM166.311 16.445H168.216V30.335H166.311V16.445ZM163.446 16.745H165.306V29.72H163.446V16.745ZM160.311 18.08H162.231C162.231 22.025 161.046 25.175 157.176 27.455L156.051 26.06C159.186 24.155 160.311 21.845 160.311 18.485V18.08ZM156.846 18.08H160.986V19.67H156.846V18.08ZM170.045 23.18H182.615V24.77H170.045V23.18ZM175.31 21.38H177.29V23.87H175.31V21.38ZM175.28 16.685H176.99V17.105C176.99 19.67 174.95 21.68 171.41 22.19L170.675 20.63C173.795 20.255 175.28 18.665 175.28 17.105V16.685ZM175.61 16.685H177.32V17.105C177.32 18.725 178.775 20.255 181.925 20.63L181.19 22.19C177.65 21.665 175.61 19.73 175.61 17.105V16.685ZM171.44 25.745H181.085V30.335H179.09V27.305H171.44V25.745ZM192.754 16.445H194.734V30.335H192.754V16.445ZM194.284 21.86H196.744V23.525H194.284V21.86ZM183.784 18.5H191.869V20.09H183.784V18.5ZM187.849 20.87C189.874 20.87 191.374 22.25 191.374 24.185C191.374 26.12 189.874 27.5 187.849 27.5C185.824 27.5 184.324 26.12 184.324 24.185C184.324 22.25 185.824 20.87 187.849 20.87ZM187.849 22.49C186.904 22.49 186.229 23.12 186.229 24.185C186.229 25.25 186.904 25.88 187.849 25.88C188.794 25.88 189.469 25.25 189.469 24.185C189.469 23.12 188.794 22.49 187.849 22.49ZM186.844 16.67H188.839V19.1H186.844V16.67ZM207.212 16.445H209.222V30.335H207.212V16.445ZM203.117 17.885H205.097C205.097 22.13 203.657 25.61 198.722 27.995L197.687 26.405C201.677 24.485 203.117 21.965 203.117 18.245V17.885ZM198.422 17.885H204.062V19.46H198.422V17.885Z" fill="black"/>
</svg>
