<svg width="308" height="48" viewBox="0 0 308 48" fill="none" xmlns="http://www.w3.org/2000/svg">
<rect width="308" height="48" rx="12" fill="#FEE500"/>
<rect width="288" height="23.4571" transform="translate(10 12.2715)" fill="#FEE500"/>
<path fill-rule="evenodd" clip-rule="evenodd" d="M96.0035 12.2715C89.0988 12.2715 83.5 16.6199 83.5 21.9756C83.5 25.3098 85.6673 28.2481 88.9598 29.9986L87.5706 35.0903C87.4455 35.5418 87.9596 35.903 88.3555 35.6391L94.4336 31.6032C94.9476 31.6519 95.4686 31.6797 95.9965 31.6797C102.901 31.6797 108.5 27.3312 108.5 21.9756C108.5 16.6199 102.908 12.2715 96.0035 12.2715Z" fill="black"/>
<path d="M122.441 18.528H124.261C124.261 22.532 123.309 25.864 118.479 28.314L117.485 26.9C121.517 24.87 122.441 22.392 122.441 18.752V18.528ZM118.283 18.528H123.547V19.998H118.283V18.528ZM122.483 21.706V23.134L117.835 23.582L117.611 21.986L122.483 21.706ZM125.829 17.268H127.705V30.232H125.829V17.268ZM127.215 22.224H129.497V23.75H127.215V22.224ZM135.32 18.528H137.14C137.14 22.532 136.188 25.864 131.358 28.314L130.364 26.9C134.396 24.87 135.32 22.392 135.32 18.752V18.528ZM131.162 18.528H136.426V19.998H131.162V18.528ZM135.362 21.706V23.134L130.714 23.582L130.49 21.986L135.362 21.706ZM138.708 17.268H140.584V30.232H138.708V17.268ZM140.094 22.224H142.376V23.75H140.094V22.224ZM148.227 24.576H150.089V27.53H148.227V24.576ZM149.165 17.94C151.937 17.94 154.009 19.354 154.009 21.51C154.009 23.694 151.937 25.094 149.165 25.094C146.393 25.094 144.321 23.694 144.321 21.51C144.321 19.354 146.393 17.94 149.165 17.94ZM149.165 19.41C147.387 19.41 146.155 20.194 146.155 21.51C146.155 22.854 147.387 23.624 149.165 23.624C150.943 23.624 152.175 22.854 152.175 21.51C152.175 20.194 150.943 19.41 149.165 19.41ZM143.313 27.236H155.045V28.748H143.313V27.236ZM156.192 27.306H167.924V28.818H156.192V27.306ZM161.106 24.856H162.968V27.922H161.106V24.856ZM157.508 18.122H166.608V22.434H159.384V24.618H157.536V20.978H164.76V19.592H157.508V18.122ZM157.536 23.876H166.902V25.374H157.536V23.876ZM178.061 20.698H180.693V22.182H178.061V20.698ZM177.991 23.932H180.637V25.416H177.991V23.932ZM182.457 17.282H184.235V30.246H182.457V17.282ZM179.783 17.562H181.519V29.672H179.783V17.562ZM176.857 18.808H178.649C178.649 22.49 177.543 25.43 173.931 27.558L172.881 26.256C175.807 24.478 176.857 22.322 176.857 19.186V18.808ZM173.623 18.808H177.487V20.292H173.623V18.808ZM185.942 23.568H197.674V25.052H185.942V23.568ZM190.856 21.888H192.704V24.212H190.856V21.888ZM190.828 17.506H192.424V17.898C192.424 20.292 190.52 22.168 187.216 22.644L186.53 21.188C189.442 20.838 190.828 19.354 190.828 17.898V17.506ZM191.136 17.506H192.732V17.898C192.732 19.41 194.09 20.838 197.03 21.188L196.344 22.644C193.04 22.154 191.136 20.348 191.136 17.898V17.506ZM187.244 25.962H196.246V30.246H194.384V27.418H187.244V25.962ZM207.137 17.282H208.985V30.246H207.137V17.282ZM208.565 22.336H210.861V23.89H208.565V22.336ZM198.765 19.2H206.311V20.684H198.765V19.2ZM202.559 21.412C204.449 21.412 205.849 22.7 205.849 24.506C205.849 26.312 204.449 27.6 202.559 27.6C200.669 27.6 199.269 26.312 199.269 24.506C199.269 22.7 200.669 21.412 202.559 21.412ZM202.559 22.924C201.677 22.924 201.047 23.512 201.047 24.506C201.047 25.5 201.677 26.088 202.559 26.088C203.441 26.088 204.071 25.5 204.071 24.506C204.071 23.512 203.441 22.924 202.559 22.924ZM201.621 17.492H203.483V19.76H201.621V17.492ZM220.632 17.282H222.508V30.246H220.632V17.282ZM216.81 18.626H218.658C218.658 22.588 217.314 25.836 212.708 28.062L211.742 26.578C215.466 24.786 216.81 22.434 216.81 18.962V18.626ZM212.428 18.626H217.692V20.096H212.428V18.626Z" fill="black"/>
</svg>
