<svg width="80" height="97" viewBox="0 0 80 97" fill="none" xmlns="http://www.w3.org/2000/svg">
<g clip-path="url(#clip0_1130_4849)">
<path d="M80 19.6523H9.96368V89.317H80V19.6523Z" fill="#687A26"/>
<path d="M40.0792 20.7653C28.9082 20.0154 26.3332 26.3134 25.6185 40.6751C24.8884 55.3579 33.5591 69.5547 36.8972 69.7196C40.2353 69.8845 49.9 54.3683 50.828 42.4101C51.7581 30.4519 53.0512 21.6361 40.077 20.7631L40.0792 20.7653Z" fill="white"/>
<path d="M48.0197 20.3079C51.2215 17.0863 57.979 7.76692 57.581 6.94229C57.1192 5.98352 50.5464 5.26224 49.6888 6.36835C48.8312 7.47445 44.5409 15.4261 43.7163 14.6344C42.8916 13.8428 47.5975 1.49534 43.78 0.736681C39.9625 -0.0219775 35.7822 -0.701472 35.6239 1.45356C35.4656 3.60859 35.1269 15.7757 33.5986 14.1946C32.0703 12.6135 29.2248 4.35405 27.1907 4.31887C25.1566 4.28149 21.4249 5.33701 21.4139 5.94174C21.4051 6.48709 26.8059 17.8868 30.5508 20.5366C33.1478 19.4063 36.3957 18.9247 40.4573 19.0676C43.4788 19.1754 45.968 19.602 48.0219 20.3101L48.0197 20.3079Z" fill="#70C802"/>
<path d="M70.0363 27.1621H0V96.8268H70.0363V27.1621Z" fill="#70C802"/>
<path d="M13.768 37.7304C11.5844 24.035 17.4316 4.84199 36.8026 5.42253C53.845 5.9327 57.0313 24.0372 56.6773 37.7304" stroke="black" stroke-width="5.96757" stroke-linecap="round" stroke-linejoin="round"/>
<path d="M11.7572 55.2881C11.7025 55.5834 11.4564 55.731 11.019 55.731C10.7128 55.731 10.505 55.6271 10.3956 55.4194C10.3409 55.1241 10.3027 54.8561 10.2808 54.6155C10.2589 54.364 10.2316 54.0961 10.1988 53.8117C10.1769 53.5165 10.1441 53.1829 10.1003 52.8111C10.0675 52.4393 10.0019 51.9799 9.90348 51.4331C9.88161 51.2253 9.86521 51.023 9.85427 50.8262C9.85427 50.6293 9.8488 50.4379 9.83787 50.252C9.63008 50.5364 9.42776 50.7988 9.23091 51.0394C9.03406 51.28 8.83174 51.4987 8.62396 51.6956C8.37242 52.0784 8.0006 52.4775 7.50847 52.8931H7.41005C7.18039 52.8931 6.9562 52.8439 6.73747 52.7455C6.52969 52.6361 6.39299 52.5213 6.32737 52.401C6.20707 52.2041 6.05397 51.9417 5.86805 51.6136C5.69307 51.2855 5.46342 50.9027 5.17908 50.4653L4.76897 49.8419C4.71429 50.1263 4.65414 50.4872 4.58853 50.9246C4.53385 51.3511 4.46823 51.8596 4.39168 52.4502V52.6963C4.39168 52.8603 4.38621 53.0462 4.37527 53.254C4.36434 53.4618 4.34246 53.6969 4.30965 53.9594L4.16202 55.5834C4.12921 55.9005 3.87221 56.0591 3.39102 56.0591C3.23791 56.0591 3.11762 56.0482 3.03013 56.0263C2.94264 56.0044 2.87155 55.9552 2.81687 55.8787C2.76219 55.8131 2.72392 55.7146 2.70204 55.5834C2.69111 55.4522 2.68564 55.2717 2.68564 55.0421C2.68564 54.3859 2.69111 54.0578 2.70204 54.0578V54.0742C2.74579 53.9648 2.7786 53.8172 2.80047 53.6313C2.83328 53.4454 2.85515 53.2649 2.86609 53.09C2.88796 52.904 2.89889 52.7455 2.89889 52.6142C2.90983 52.4721 2.9153 52.401 2.9153 52.401C2.9153 52.3791 2.92623 52.2916 2.94811 52.1385C2.96998 51.9745 2.99185 51.7995 3.01372 51.6136C3.04653 51.4167 3.07387 51.2308 3.09574 51.0558C3.11762 50.8699 3.12855 50.7442 3.12855 50.6785V50.5801C3.15043 50.3176 3.1723 50.0278 3.19417 49.7107C3.21604 49.3935 3.24885 49.0436 3.2926 48.6608L3.60427 47.2501C3.77925 47.1079 4.03625 47.0368 4.37527 47.0368C4.55025 47.0368 4.70336 47.0696 4.83459 47.1352C5.00957 47.3868 5.17908 47.6328 5.34312 47.8734C5.5181 48.114 5.69307 48.3765 5.86805 48.6608C6.05397 48.9452 6.25628 49.2732 6.47501 49.6451C6.69373 50.0169 6.95073 50.4653 7.246 50.9902C7.69439 50.5746 7.96779 50.2466 8.06621 50.006C8.09902 49.995 8.44351 49.5357 9.09968 48.628L9.82146 47.7094C9.90895 47.6656 10.0292 47.6438 10.1824 47.6438C10.4886 47.6438 10.7674 47.7367 11.019 47.9226C11.2158 48.8303 11.3142 49.4756 11.3142 49.8583V50.006C11.3142 50.0606 11.3252 50.1919 11.3471 50.3997C11.3689 50.5965 11.3963 50.8152 11.4291 51.0558C11.4619 51.2855 11.4892 51.5042 11.5111 51.712C11.5439 51.9198 11.5712 52.062 11.5931 52.1385C11.5931 52.4557 11.604 52.7837 11.6259 53.1228C11.6587 53.4618 11.7025 53.8117 11.7572 54.1726C11.779 54.3039 11.7954 54.4242 11.8064 54.5335C11.8173 54.6429 11.8228 54.7468 11.8228 54.8452C11.8228 54.9327 11.8173 55.0147 11.8064 55.0913C11.7954 55.1678 11.779 55.2334 11.7572 55.2881ZM18.383 55.1241C18.2409 55.2225 18.0112 55.3209 17.6941 55.4194C17.3769 55.5068 17.0488 55.5834 16.7098 55.649L16.0372 55.5178C15.9388 55.485 15.7748 55.4084 15.5451 55.2881C15.3264 55.1678 15.1022 54.9874 14.8725 54.7468C14.6429 54.4952 14.4406 54.1781 14.2656 53.7953C14.0906 53.4016 14.0031 52.9259 14.0031 52.3682C14.0031 52.1713 14.0469 51.9417 14.1344 51.6792C14.2328 51.4058 14.3749 51.1543 14.5609 50.9246C14.7468 50.684 14.9764 50.4817 15.2498 50.3176C15.5342 50.1536 15.8623 50.0716 16.2341 50.0716C16.9777 50.0716 17.6503 50.3122 18.2518 50.7934C18.7767 51.5152 19.0392 52.3135 19.0392 53.1884C19.0392 53.8336 18.8205 54.4788 18.383 55.1241ZM17.5792 52.7947C17.5246 52.3682 17.3878 52.0346 17.1691 51.794C16.9613 51.5425 16.6934 51.4167 16.3653 51.4167C16.1466 51.4167 15.9388 51.5261 15.742 51.7448C15.556 51.9526 15.4631 52.2588 15.4631 52.6634C15.4631 52.8275 15.485 53.0025 15.5287 53.1884C15.5725 53.3634 15.6435 53.5274 15.742 53.6805C15.8404 53.8227 15.9662 53.943 16.1193 54.0414C16.2724 54.1289 16.4583 54.1726 16.677 54.1726C17.027 54.1726 17.2676 54.0687 17.3988 53.861C17.53 53.6422 17.5956 53.3743 17.5956 53.0571C17.5956 53.0134 17.5902 52.9751 17.5792 52.9423C17.5792 52.8986 17.5792 52.8494 17.5792 52.7947ZM30.356 55.2881C30.3014 55.5834 30.0553 55.731 29.6179 55.731C29.3116 55.731 29.1039 55.6271 28.9945 55.4194C28.9398 55.1241 28.9015 54.8561 28.8797 54.6155C28.8578 54.364 28.8305 54.0961 28.7976 53.8117C28.7758 53.5165 28.743 53.1829 28.6992 52.8111C28.6664 52.4393 28.6008 51.9799 28.5024 51.4331C28.4805 51.2253 28.4641 51.023 28.4532 50.8262C28.4532 50.6293 28.4477 50.4379 28.4368 50.252C28.229 50.5364 28.0266 50.7988 27.8298 51.0394C27.6329 51.28 27.4306 51.4987 27.2228 51.6956C26.9713 52.0784 26.5995 52.4775 26.1074 52.8931H26.0089C25.7793 52.8931 25.5551 52.8439 25.3364 52.7455C25.1286 52.6361 24.9919 52.5213 24.9263 52.401C24.806 52.2041 24.6529 51.9417 24.4669 51.6136C24.292 51.2855 24.0623 50.9027 23.778 50.4653L23.3679 49.8419C23.3132 50.1263 23.253 50.4872 23.1874 50.9246C23.1327 51.3511 23.0671 51.8596 22.9906 52.4502V52.6963C22.9906 52.8603 22.9851 53.0462 22.9742 53.254C22.9632 53.4618 22.9413 53.6969 22.9085 53.9594L22.7609 55.5834C22.7281 55.9005 22.4711 56.0591 21.9899 56.0591C21.8368 56.0591 21.7165 56.0482 21.629 56.0263C21.5415 56.0044 21.4704 55.9552 21.4158 55.8787C21.3611 55.8131 21.3228 55.7146 21.3009 55.5834C21.29 55.4522 21.2845 55.2717 21.2845 55.0421C21.2845 54.3859 21.29 54.0578 21.3009 54.0578V54.0742C21.3447 53.9648 21.3775 53.8172 21.3994 53.6313C21.4322 53.4454 21.454 53.2649 21.465 53.09C21.4868 52.904 21.4978 52.7455 21.4978 52.6142C21.5087 52.4721 21.5142 52.401 21.5142 52.401C21.5142 52.3791 21.5251 52.2916 21.547 52.1385C21.5689 51.9745 21.5907 51.7995 21.6126 51.6136C21.6454 51.4167 21.6728 51.2308 21.6946 51.0558C21.7165 50.8699 21.7274 50.7442 21.7274 50.6785V50.5801C21.7493 50.3176 21.7712 50.0278 21.7931 49.7107C21.8149 49.3935 21.8477 49.0436 21.8915 48.6608L22.2032 47.2501C22.3781 47.1079 22.6351 47.0368 22.9742 47.0368C23.1491 47.0368 23.3022 47.0696 23.4335 47.1352C23.6085 47.3868 23.778 47.6328 23.942 47.8734C24.117 48.114 24.292 48.3765 24.4669 48.6608C24.6529 48.9452 24.8552 49.2732 25.0739 49.6451C25.2926 50.0169 25.5496 50.4653 25.8449 50.9902C26.2933 50.5746 26.5667 50.2466 26.6651 50.006C26.6979 49.995 27.0424 49.5357 27.6986 48.628L28.4203 47.7094C28.5078 47.6656 28.6281 47.6438 28.7812 47.6438C29.0875 47.6438 29.3663 47.7367 29.6179 47.9226C29.8147 48.8303 29.9131 49.4756 29.9131 49.8583V50.006C29.9131 50.0606 29.9241 50.1919 29.9459 50.3997C29.9678 50.5965 29.9952 50.8152 30.028 51.0558C30.0608 51.2855 30.0881 51.5042 30.11 51.712C30.1428 51.9198 30.1701 52.062 30.192 52.1385C30.192 52.4557 30.2029 52.7837 30.2248 53.1228C30.2576 53.4618 30.3014 53.8117 30.356 54.1726C30.3779 54.3039 30.3943 54.4242 30.4053 54.5335C30.4162 54.6429 30.4217 54.7468 30.4217 54.8452C30.4217 54.9327 30.4162 55.0147 30.4053 55.0913C30.3943 55.1678 30.3779 55.2334 30.356 55.2881ZM44.9203 53.9594C44.7125 54.3968 44.3735 54.7468 43.9032 55.0092C43.433 55.2608 42.908 55.3865 42.3284 55.3865C42.2519 55.3865 42.1261 55.3756 41.9511 55.3537C41.7761 55.3319 41.5793 55.2881 41.3606 55.2225C41.1528 55.1569 40.934 55.0694 40.7044 54.96C40.4857 54.8397 40.2834 54.6866 40.0974 54.5007C39.9115 54.3039 39.7584 54.0687 39.6381 53.7953C39.5178 53.5219 39.4577 53.1993 39.4577 52.8275C39.4467 52.3354 39.5124 51.887 39.6545 51.4823C39.8076 51.0777 40.0482 50.6676 40.3763 50.252L40.9012 49.5795C41.5137 49.1639 42.2026 48.9561 42.9682 48.9561C43.3837 48.9561 43.7118 49.0327 43.9524 49.1858C44.204 49.3389 44.3297 49.5576 44.3297 49.8419C44.3297 50.0606 44.2477 50.2411 44.0837 50.3833C43.9305 50.5145 43.7282 50.5801 43.4767 50.5801C43.4658 50.5801 43.422 50.5746 43.3455 50.5637C43.2798 50.5418 43.2033 50.52 43.1158 50.4981C43.0283 50.4762 42.9408 50.4598 42.8533 50.4489C42.7659 50.427 42.6948 50.4161 42.6401 50.4161C42.3886 50.4161 42.0987 50.5473 41.7707 50.8098C41.4535 51.0722 41.202 51.4878 41.0161 52.0565C40.9395 52.2971 40.9012 52.4939 40.9012 52.647C40.9012 52.9533 40.9833 53.1938 41.1473 53.3688C41.3223 53.5438 41.5137 53.6805 41.7215 53.7789C41.9292 53.8664 42.1206 53.9266 42.2956 53.9594C42.4706 53.9813 42.5635 53.9922 42.5745 53.9922C42.7276 53.9922 42.8807 53.9484 43.0338 53.861C43.1869 53.7735 43.3236 53.675 43.4439 53.5657C43.5751 53.4563 43.679 53.3634 43.7556 53.2868C43.8321 53.1993 43.8649 53.1556 43.854 53.1556C43.9634 53.0571 44.0891 53.0079 44.2313 53.0079C44.4063 53.0079 44.5648 53.1009 44.707 53.2868C44.8601 53.4618 44.9367 53.6422 44.9367 53.8281C44.9367 53.8828 44.9312 53.9266 44.9203 53.9594ZM52.2326 54.8288C52.1779 54.9819 52.0685 55.135 51.9045 55.2881C51.7404 55.4412 51.5819 55.5178 51.4288 55.5178C51.1116 55.5178 50.9038 55.2936 50.8054 54.8452C50.707 54.3968 50.6578 53.7625 50.6578 52.9423V52.7947C50.6578 52.3791 50.625 52.0784 50.5593 51.8925C50.5047 51.6956 50.4664 51.5698 50.4445 51.5152C50.3242 51.2527 50.1383 51.1215 49.8868 51.1215C49.7337 51.1215 49.5751 51.1543 49.411 51.2199C49.247 51.2746 49.0994 51.3456 48.9681 51.4331C48.8369 51.5097 48.7221 51.5862 48.6236 51.6628C48.5362 51.7393 48.4815 51.794 48.4596 51.8268C48.4377 51.9034 48.4159 52.0346 48.394 52.2205C48.383 52.4064 48.3721 52.6197 48.3612 52.8603C48.3502 53.1009 48.3393 53.347 48.3284 53.5985C48.3174 53.85 48.3065 54.0797 48.2956 54.2875C48.2956 54.4952 48.2956 54.6593 48.2956 54.7796C48.2956 54.8999 48.301 54.9491 48.312 54.9272C48.2792 55.2225 48.044 55.3701 47.6066 55.3701C47.2785 55.3701 47.0652 55.2662 46.9668 55.0585C46.8793 54.8507 46.8356 54.4952 46.8356 53.9922C46.8356 53.861 46.8356 53.7844 46.8356 53.7625C46.8465 53.7407 46.8575 53.6914 46.8684 53.6149C46.8793 53.5274 46.8957 53.3743 46.9176 53.1556C46.9395 52.9369 46.9668 52.565 46.9996 52.0401C47.0106 51.8214 47.0215 51.6245 47.0324 51.4495C47.0434 51.2636 47.0434 51.105 47.0324 50.9738C47.0324 50.8535 47.0324 50.7551 47.0324 50.6785C47.0324 50.5911 47.027 50.52 47.016 50.4653C47.027 50.4325 47.0379 50.3286 47.0488 50.1536C47.0707 49.9786 47.0871 49.7872 47.0981 49.5795C47.1199 49.3717 47.1418 49.1748 47.1637 48.9889C47.1855 48.803 47.2074 48.6772 47.2293 48.6116C47.2293 48.382 47.2348 48.1195 47.2457 47.8242C47.2566 47.518 47.2949 47.2337 47.3605 46.9712C47.4261 46.7087 47.5246 46.49 47.6558 46.315C47.798 46.1291 47.9948 46.0362 48.2463 46.0362C48.6729 46.0362 48.8861 46.3096 48.8861 46.8564C48.8861 47.1626 48.826 47.6 48.7057 48.1687C48.6838 48.464 48.6564 48.6936 48.6236 48.8577C48.6018 49.0217 48.5799 49.1639 48.558 49.2842C48.5362 49.4045 48.5197 49.5193 48.5088 49.6287C48.4979 49.738 48.4924 49.8911 48.4924 50.088C48.7658 49.8583 49.0283 49.7271 49.2798 49.6943C49.5313 49.6505 49.7665 49.6287 49.9852 49.6287C50.532 49.6287 50.9694 49.7872 51.2975 50.1044C51.6256 50.4215 51.8717 50.9465 52.0357 51.6792C52.0466 51.9417 52.0521 52.1494 52.0521 52.3026C52.0631 52.4447 52.074 52.6088 52.0849 52.7947C52.1068 52.9697 52.1287 53.2103 52.1505 53.5165C52.1724 53.8227 52.1998 54.2601 52.2326 54.8288ZM60.5545 53.5985C60.7513 53.7297 60.8498 53.8883 60.8498 54.0742C60.8498 54.1726 60.8224 54.2765 60.7677 54.3859C60.7131 54.4843 60.642 54.5773 60.5545 54.6648C60.467 54.7413 60.374 54.8069 60.2756 54.8616C60.1772 54.9163 60.0788 54.9436 59.9803 54.9436C59.8928 54.9108 59.789 54.8561 59.6687 54.7796C59.5484 54.6921 59.4281 54.5991 59.3078 54.5007C59.1875 54.3914 59.0726 54.2711 58.9633 54.1398C58.8649 54.0086 58.7883 53.8774 58.7336 53.7461L58.6188 54.025C58.411 54.4187 58.0829 54.7905 57.6345 55.1405C57.0877 55.2389 56.7706 55.2881 56.6831 55.2881C56.4753 55.2881 56.2238 55.2553 55.9285 55.1897L55.0263 54.5499C54.6326 54.1781 54.4357 53.6696 54.4357 53.0243C54.4357 52.7947 54.4685 52.5431 54.5341 52.2697C54.6107 51.9854 54.7146 51.7011 54.8458 51.4167C54.988 51.1324 55.1575 50.8535 55.3544 50.5801C55.5512 50.3067 55.7809 50.0606 56.0433 49.8419C56.3605 49.7216 56.6667 49.6232 56.962 49.5467C57.2572 49.4592 57.4814 49.4045 57.6345 49.3826C57.8423 49.153 58.0884 49.0381 58.3727 49.0381C58.5368 49.0381 58.6789 49.1201 58.7992 49.2842C58.9305 49.4373 59.0398 49.6341 59.1273 49.8747C59.2257 50.1153 59.3023 50.3833 59.357 50.6785C59.4117 50.9629 59.4499 51.2363 59.4718 51.4987L59.6851 52.3682C59.7507 52.6416 59.8546 52.8767 59.9967 53.0736C60.1498 53.2704 60.3358 53.4454 60.5545 53.5985ZM58.061 51.7776C58.0392 51.7667 57.9572 51.4222 57.815 50.7442C57.7603 50.7442 57.6783 50.7442 57.5689 50.7442C57.4596 50.7442 57.3283 50.777 57.1752 50.8426C57.0331 50.8973 56.8745 51.0012 56.6995 51.1543C56.5355 51.2964 56.3769 51.5152 56.2238 51.8104C55.9941 52.2369 55.8793 52.6634 55.8793 53.09C56.0652 53.4508 56.355 53.7352 56.7487 53.943C56.869 53.9102 56.9674 53.8719 57.044 53.8281C57.1315 53.7844 57.208 53.7243 57.2736 53.6477C57.3393 53.5711 57.3994 53.4782 57.4541 53.3688C57.5197 53.2485 57.5908 53.1009 57.6673 52.9259C57.8095 52.6744 57.9079 52.4557 57.9626 52.2697C58.0282 52.0729 58.061 51.9089 58.061 51.7776ZM67.6545 53.7133V53.8445C67.6545 53.9102 67.6545 54.0305 67.6545 54.2054C67.6655 54.3695 67.6491 54.539 67.6053 54.714C67.5725 54.8889 67.5014 55.0475 67.3921 55.1897C67.2827 55.3209 67.1187 55.3865 66.9 55.3865C66.4734 55.3865 66.2219 55.217 66.1454 54.878C66.1563 54.8124 66.1618 54.7413 66.1618 54.6648C66.1618 54.5773 66.1618 54.4843 66.1618 54.3859C66.1618 54.3421 66.1618 54.1836 66.1618 53.9102C66.1618 53.6258 66.1508 53.3196 66.129 52.9915C66.118 52.6634 66.0852 52.3572 66.0305 52.0729C65.9759 51.7776 65.8938 51.5917 65.7845 51.5152C65.5329 51.3402 65.3088 51.2527 65.1119 51.2527C64.8494 51.2527 64.6252 51.3347 64.4393 51.4987C64.2644 51.6519 64.1167 51.9581 63.9964 52.4174C63.9855 52.5705 63.9745 52.7455 63.9636 52.9423C63.9527 53.1282 63.9363 53.3415 63.9144 53.5821C63.9144 53.768 63.9199 53.9758 63.9308 54.2054C63.9417 54.4242 63.9581 54.6757 63.98 54.96C63.98 55.1678 63.898 55.3428 63.7339 55.485C63.5699 55.6162 63.384 55.6818 63.1762 55.6818C63.0122 55.6818 62.8809 55.6381 62.7825 55.5506C62.6841 55.4631 62.6075 55.3483 62.5528 55.2061C62.5091 55.0639 62.4763 54.9108 62.4544 54.7468C62.4435 54.5827 62.438 54.4187 62.438 54.2547C62.438 54.1344 62.4435 54.0141 62.4544 53.8938C62.4654 53.7625 62.4818 53.6313 62.5036 53.5001L62.6349 51.9253L62.7661 51.1379C62.7442 51.0066 62.7005 50.8645 62.6349 50.7113C62.5693 50.5582 62.5364 50.4379 62.5364 50.3505C62.5364 50.1645 62.6075 49.995 62.7497 49.8419C62.9028 49.6888 63.0887 49.6123 63.3074 49.6123C63.4605 49.6123 63.5754 49.6451 63.6519 49.7107C63.7285 49.7654 63.8542 49.9075 64.0292 50.1372C64.2479 50.0388 64.4229 49.9786 64.5542 49.9568C64.6854 49.9239 64.8385 49.9075 65.0135 49.9075C65.5822 49.9075 66.0797 50.0442 66.5063 50.3176C66.9437 50.5801 67.2171 51.023 67.3265 51.6464C67.3593 51.876 67.3866 52.0674 67.4085 52.2205C67.4413 52.3736 67.4686 52.5213 67.4905 52.6634C67.5124 52.8056 67.5343 52.9587 67.5561 53.1228C67.578 53.2759 67.6108 53.4727 67.6545 53.7133Z" fill="#F9F5EB"/>
<path d="M25.8221 68.4941C25.7852 68.8266 25.739 69.1221 25.6836 69.3807C25.6466 69.6393 25.5635 69.8887 25.4342 70.1288C25.3049 70.3505 25.1294 70.5906 24.9078 70.8492C24.7046 71.0893 24.4367 71.3664 24.1043 71.6804C23.2361 72.4932 22.2756 72.9642 21.2227 73.0935C20.9826 73.1859 20.6686 73.2967 20.2807 73.426C19.8928 73.5368 19.431 73.6661 18.8953 73.8139L18.9784 75.6149C19.0154 75.8735 19.0431 76.1321 19.0615 76.3907C19.08 76.6493 19.0893 76.9356 19.0893 77.2496C19.0893 77.4712 19.0893 77.7114 19.0893 77.97C19.0893 78.2286 19.0523 78.4687 18.9784 78.6904C18.923 78.912 18.8029 79.0967 18.6182 79.2445C18.452 79.3923 18.2026 79.4662 17.8701 79.4662C17.5192 79.4662 17.2606 79.4015 17.0943 79.2722C16.9281 79.1429 16.8173 78.9582 16.7618 78.7181C16.7064 78.4964 16.6695 78.2286 16.651 77.9146C16.651 77.6005 16.6233 77.268 16.5679 76.9171V76.9448C16.5494 76.7047 16.531 76.4184 16.5125 76.0859C16.494 75.7903 16.4755 75.4301 16.4571 75.0053C16.4386 74.562 16.4109 74.0448 16.3739 73.4537V73.2874C16.3739 73.1766 16.3647 73.0288 16.3462 72.8441C16.3462 72.6594 16.337 72.4655 16.3185 72.2623C16.3001 72.0591 16.2816 71.8836 16.2631 71.7358C16.2631 71.5696 16.2631 71.4588 16.2631 71.4034C16.2631 71.2925 16.2631 71.0986 16.2631 70.8215C16.2816 70.526 16.2908 70.2119 16.2908 69.8795C16.3093 69.547 16.3185 69.233 16.3185 68.9374C16.337 68.6234 16.3462 68.3833 16.3462 68.217C16.3462 67.9215 16.3278 67.6536 16.2908 67.4135C16.2724 67.1734 16.2446 66.9517 16.2077 66.7485C16.2077 66.7116 16.2077 66.5915 16.2077 66.3884C16.2262 66.1852 16.2446 65.9635 16.2631 65.7234C16.2816 65.4648 16.3093 65.2154 16.3462 64.9753C16.3832 64.7167 16.4294 64.5043 16.4848 64.338C16.9835 64.0979 17.5838 63.9778 18.2857 63.9778H18.5074C19.3017 63.7377 20.0405 63.6176 20.724 63.6176C20.9826 63.6176 21.7122 63.7285 22.9128 63.9501L24.132 64.6151C24.4644 64.8183 24.7323 65.0307 24.9355 65.2524C25.1571 65.4555 25.3326 65.7049 25.4619 66.0005C25.5912 66.296 25.6836 66.647 25.739 67.0533C25.7944 67.4412 25.8221 67.9215 25.8221 68.4941ZM23.2176 68.882C23.273 68.531 23.3007 68.217 23.3007 67.94C23.3007 67.4412 23.0976 66.9887 22.6912 66.5823C22.2848 66.1575 21.6198 65.945 20.6963 65.945C20.2714 65.945 19.6249 66.0928 18.7568 66.3884C18.7937 66.7393 18.8214 67.1642 18.8399 67.6629C18.8584 68.1431 18.8676 68.7065 18.8676 69.353C18.8491 69.39 18.8399 69.5747 18.8399 69.9072C18.8399 70.0734 18.8399 70.2766 18.8399 70.5167C18.8399 70.7384 18.8491 70.997 18.8676 71.2925C19.0338 71.2741 19.2186 71.2371 19.4217 71.1817C19.6434 71.1263 19.8466 71.0709 20.0313 71.0155C20.216 70.9416 20.373 70.8769 20.5023 70.8215C20.6316 70.7661 20.6963 70.7384 20.6963 70.7384C22.0262 70.4244 22.8667 69.8056 23.2176 68.882ZM33.4533 64.8645C33.4902 65.0122 33.5087 65.1508 33.5087 65.2801C33.5087 65.8712 33.3332 66.3699 32.9822 66.7763C32.4281 66.9979 31.874 67.1087 31.3198 67.1087C30.9689 66.8871 30.6733 66.6377 30.4332 66.3606C30.2115 66.0651 30.1007 65.7788 30.1007 65.5017C30.1007 65.2616 30.3778 64.6705 30.9319 63.7285C31.172 63.7654 31.4214 63.7931 31.68 63.8116C31.9571 63.8301 32.2064 63.8762 32.4281 63.9501C32.6682 64.024 32.8714 64.1348 33.0377 64.2826C33.2224 64.4119 33.3609 64.6059 33.4533 64.8645ZM32.5666 69.4916V69.8518C32.5666 69.9441 32.5666 70.0457 32.5666 70.1565C32.5666 70.2674 32.5482 70.369 32.5112 70.4613L32.2896 71.7081V71.9575C32.2896 72.0683 32.2803 72.2161 32.2619 72.4008C32.2434 72.5855 32.2157 72.7702 32.1787 72.955C32.1603 73.1397 32.1418 73.3152 32.1233 73.4814C32.1049 73.6476 32.0956 73.7862 32.0956 73.897C32.0956 73.9894 32.0956 74.0632 32.0956 74.1187C32.1141 74.1741 32.1233 74.248 32.1233 74.3403C32.1233 74.5066 32.1049 74.6913 32.0679 74.8945C32.031 75.0792 32.0125 75.2916 32.0125 75.5317C32.0125 75.7534 32.0402 75.9843 32.0956 76.2244C31.8924 77.0556 31.4676 77.4712 30.8211 77.4712C29.916 77.4712 29.4634 76.6215 29.4634 74.9222C29.4634 74.3496 29.4911 73.7862 29.5466 73.232C29.602 72.6594 29.6666 72.133 29.7405 71.6527C29.8144 71.1725 29.8883 70.7569 29.9622 70.4059C30.0545 70.0365 30.1284 69.7502 30.1838 69.547C30.4609 69.1406 30.8488 68.9374 31.3475 68.9374C31.8278 68.9374 32.2342 69.1221 32.5666 69.4916ZM46.409 75.2547C46.058 75.9935 45.4854 76.5846 44.6911 77.0279C43.8969 77.4528 43.0102 77.6652 42.0312 77.6652C41.9019 77.6652 41.6895 77.6467 41.394 77.6098C41.0984 77.5728 40.766 77.4989 40.3965 77.3881C40.0456 77.2773 39.6761 77.1295 39.2882 76.9448C38.9188 76.7416 38.5771 76.483 38.2631 76.169C37.9491 75.8365 37.6905 75.4394 37.4873 74.9776C37.2841 74.5158 37.1825 73.9709 37.1825 73.3429C37.164 72.5116 37.2748 71.7543 37.515 71.0709C37.7736 70.3874 38.1799 69.6947 38.7341 68.9928L39.6207 67.8568C40.6551 67.1549 41.8188 66.804 43.1118 66.804C43.8137 66.804 44.3679 66.9333 44.7743 67.1919C45.1991 67.4505 45.4115 67.8199 45.4115 68.3002C45.4115 68.6696 45.273 68.9744 44.9959 69.2145C44.7373 69.4361 44.3956 69.547 43.9708 69.547C43.9523 69.547 43.8784 69.5377 43.7491 69.5193C43.6383 69.4823 43.509 69.4454 43.3612 69.4084C43.2134 69.3715 43.0657 69.3438 42.9179 69.3253C42.7701 69.2884 42.65 69.2699 42.5577 69.2699C42.1328 69.2699 41.6433 69.4916 41.0892 69.9349C40.5535 70.3782 40.1287 71.0801 39.8147 72.0406C39.6854 72.447 39.6207 72.7795 39.6207 73.0381C39.6207 73.5553 39.7593 73.9617 40.0363 74.2572C40.3319 74.5527 40.6551 74.7836 41.0061 74.9499C41.357 75.0977 41.6803 75.1992 41.9758 75.2547C42.2714 75.2916 42.4284 75.3101 42.4469 75.3101C42.7055 75.3101 42.9641 75.2362 43.2227 75.0884C43.4813 74.9406 43.7122 74.7744 43.9153 74.5897C44.137 74.405 44.3125 74.248 44.4418 74.1187C44.5711 73.9709 44.6265 73.897 44.608 73.897C44.7927 73.7308 45.0052 73.6476 45.2453 73.6476C45.5408 73.6476 45.8087 73.8046 46.0488 74.1187C46.3074 74.4142 46.4367 74.719 46.4367 75.033C46.4367 75.1254 46.4275 75.1992 46.409 75.2547ZM58.1501 75.504C58.1686 75.5779 58.1778 75.6426 58.1778 75.698C58.1963 75.7534 58.2055 75.818 58.2055 75.8919C58.2055 76.2798 58.0855 76.5938 57.8454 76.834C57.6052 77.0741 57.3282 77.1942 57.0141 77.1942C56.7371 77.1942 56.4877 77.0741 56.266 76.834C56.0444 76.5938 55.8043 76.2891 55.5457 75.9196C55.3055 75.5502 55.0285 75.1438 54.7144 74.7005C54.4004 74.2572 54.0125 73.8324 53.5507 73.426C53.4768 73.3521 53.3383 73.2505 53.1351 73.1212C52.9319 72.9734 52.6733 72.7887 52.3593 72.5671L52.1931 72.6502C52.1561 72.7795 52.1284 72.9365 52.11 73.1212C52.0545 73.4352 52.0268 73.8508 52.0268 74.368C52.0268 74.5158 52.0453 74.682 52.0823 74.8668C52.0823 74.9037 52.073 74.9406 52.0545 74.9776C52.0545 75.0145 52.0545 75.0607 52.0545 75.1161C52.0545 75.2824 52.0545 75.504 52.0545 75.7811C52.073 76.0397 52.0915 76.2983 52.11 76.5569C52.1284 76.797 52.1377 77.0094 52.1377 77.1942C52.1561 77.3789 52.1654 77.462 52.1654 77.4435C52.1654 77.7575 52.0268 77.9977 51.7498 78.1639C51.4727 78.3302 51.1679 78.4133 50.8354 78.4133C50.3552 78.4133 50.0319 78.1824 49.8657 77.7206C49.7179 77.2588 49.644 76.4738 49.644 75.3655C49.644 74.6266 49.6717 73.9617 49.7271 73.3706C49.7826 72.761 49.8103 72.2253 49.8103 71.7636V71.2925C49.8103 71.2002 49.8195 71.0432 49.838 70.8215C49.8749 70.5998 49.9026 70.3505 49.9211 70.0734C49.958 69.7963 49.9857 69.5193 50.0042 69.2422C50.0412 68.9467 50.0596 68.6973 50.0596 68.4941V68.1893C50.0781 68.1339 50.1058 67.8845 50.1427 67.4412C50.1797 66.9979 50.2443 66.4899 50.3367 65.9173C50.4291 65.3262 50.5399 64.7259 50.6692 64.1164C50.817 63.4883 50.9924 62.9619 51.1956 62.5371C51.3249 62.26 51.6112 62.1214 52.0545 62.1214C52.8858 62.1214 53.3014 62.4447 53.3014 63.0912C53.3014 63.239 53.2644 63.516 53.1905 63.9224C53.1167 64.3288 53.0335 64.7721 52.9412 65.2524C52.8673 65.7141 52.7934 66.1667 52.7195 66.61C52.6641 67.0533 52.6364 67.3858 52.6364 67.6075C52.5995 67.6629 52.5163 68.3556 52.387 69.6855C52.6641 69.5008 52.9135 69.3161 53.1351 69.1314C53.3753 68.9282 53.6246 68.725 53.8832 68.5218C54.1418 68.3186 54.4466 68.1062 54.7976 67.8845C55.1485 67.6444 55.5826 67.3766 56.0998 67.081C56.1367 67.081 56.1644 67.081 56.1829 67.081C56.2014 67.0626 56.2291 67.0533 56.266 67.0533C56.5431 67.0533 56.8202 67.1826 57.0973 67.4412C57.3743 67.6998 57.5129 67.9954 57.5129 68.3279C57.5129 68.531 57.5036 68.6788 57.4852 68.7712C57.4667 68.8451 57.3836 68.9374 57.2358 69.0482C57.1065 69.1591 56.8848 69.3068 56.5708 69.4916C56.2568 69.6763 55.8135 69.9626 55.2409 70.3505C55.2039 70.4428 54.8992 70.6553 54.3265 70.9877C54.5482 71.1725 54.6867 71.2925 54.7421 71.3479C54.816 71.4034 54.9084 71.4957 55.0192 71.625C55.13 71.7358 55.3148 71.939 55.5734 72.2346C55.8504 72.5116 56.3122 72.9734 56.9587 73.6199C57.3097 74.1002 57.7068 74.7282 58.1501 75.504Z" fill="#F9F5EB"/>
</g>
<defs>
<clipPath id="clip0_1130_4849">
<rect width="80" height="96.8268" fill="white"/>
</clipPath>
</defs>
</svg>
