<svg width="56" height="38" viewBox="0 0 56 38" fill="none" xmlns="http://www.w3.org/2000/svg">
<path d="M8.22982 10.8047C8.18641 11.0391 7.99108 11.1563 7.64383 11.1563C7.40076 11.1563 7.23581 11.0738 7.149 10.9088C7.10559 10.6745 7.07521 10.4618 7.05785 10.2708C7.04049 10.0711 7.01878 9.85842 6.99274 9.6327C6.97538 9.39831 6.94933 9.13353 6.91461 8.83837C6.88856 8.54321 6.83648 8.1786 6.75835 7.74454C6.74098 7.57959 6.72796 7.41899 6.71928 7.26273C6.71928 7.10646 6.71494 6.95454 6.70626 6.80696C6.54131 7.03267 6.38071 7.24102 6.22445 7.43201C6.06819 7.623 5.90758 7.79662 5.74264 7.95288C5.54297 8.25673 5.24781 8.57359 4.85715 8.90348H4.77902C4.59672 8.90348 4.41875 8.86441 4.24513 8.78628C4.08018 8.69947 3.97167 8.60832 3.91958 8.51282C3.82409 8.35656 3.70255 8.14821 3.55497 7.88778C3.41607 7.62734 3.23376 7.32349 3.00805 6.97625L2.6825 6.48141C2.6391 6.70713 2.59135 6.99361 2.53926 7.34086C2.49586 7.67943 2.44377 8.0831 2.383 8.55189V8.74722C2.383 8.87744 2.37866 9.02502 2.36998 9.18996C2.3613 9.35491 2.34393 9.54155 2.31789 9.7499L2.20069 11.0391C2.17465 11.2908 1.97064 11.4167 1.58867 11.4167C1.46713 11.4167 1.37164 11.408 1.30219 11.3907C1.23274 11.3733 1.17631 11.3342 1.1329 11.2735C1.0895 11.2214 1.05911 11.1432 1.04175 11.0391C1.03307 10.9349 1.02873 10.7917 1.02873 10.6093C1.02873 10.0885 1.03307 9.82803 1.04175 9.82803V9.84105C1.07647 9.75424 1.10252 9.63705 1.11988 9.48946C1.14592 9.34188 1.16329 9.19864 1.17197 9.05974C1.18933 8.91216 1.19801 8.78628 1.19801 8.68211C1.20669 8.56925 1.21103 8.51282 1.21103 8.51282C1.21103 8.49546 1.21971 8.42601 1.23708 8.30447C1.25444 8.17426 1.2718 8.03536 1.28916 7.88778C1.31521 7.73151 1.33691 7.58393 1.35427 7.44503C1.37164 7.29745 1.38032 7.19762 1.38032 7.14553V7.0674C1.39768 6.85905 1.41504 6.629 1.4324 6.37724C1.44977 6.12548 1.47581 5.84768 1.51054 5.54384L1.75795 4.42396C1.89685 4.3111 2.10086 4.25468 2.36998 4.25468C2.50888 4.25468 2.63042 4.28072 2.73459 4.33281C2.87349 4.53248 3.00805 4.7278 3.13827 4.91879C3.27717 5.10978 3.41607 5.31813 3.55497 5.54384C3.70255 5.76955 3.86315 6.02999 4.03678 6.32515C4.2104 6.62031 4.41441 6.97625 4.6488 7.39294C5.00473 7.06306 5.22177 6.80262 5.2999 6.61163C5.32594 6.60295 5.5994 6.23834 6.12027 5.5178L6.69324 4.78857C6.76269 4.75385 6.85818 4.73649 6.97972 4.73649C7.22279 4.73649 7.44416 4.81028 7.64383 4.95786C7.80009 5.6784 7.87823 6.19059 7.87823 6.49444V6.61163C7.87823 6.65504 7.88691 6.75921 7.90427 6.92416C7.92163 7.08042 7.94333 7.25405 7.96938 7.44503C7.99542 7.62734 8.01712 7.80096 8.03449 7.96591C8.06053 8.13085 8.08223 8.24371 8.0996 8.30447C8.0996 8.55623 8.10828 8.81667 8.12564 9.08579C8.15168 9.35491 8.18641 9.6327 8.22982 9.91919C8.24718 10.0234 8.2602 10.1189 8.26888 10.2057C8.27756 10.2925 8.2819 10.375 8.2819 10.4531C8.2819 10.5225 8.27756 10.5876 8.26888 10.6484C8.2602 10.7092 8.24718 10.7613 8.22982 10.8047ZM13.4895 10.6745C13.3767 10.7526 13.1944 10.8307 12.9426 10.9088C12.6909 10.9783 12.4304 11.0391 12.1613 11.0912L11.6274 10.987C11.5493 10.9609 11.4191 10.9002 11.2367 10.8047C11.0631 10.7092 10.8852 10.5659 10.7028 10.375C10.5205 10.1753 10.3599 9.92353 10.221 9.61968C10.0821 9.30716 10.0127 8.92952 10.0127 8.48678C10.0127 8.33052 10.0474 8.14821 10.1169 7.93986C10.195 7.72283 10.3079 7.52316 10.4554 7.34086C10.603 7.14987 10.7853 6.98927 11.0024 6.85905C11.2281 6.72883 11.4885 6.66372 11.7837 6.66372C12.374 6.66372 12.9079 6.85471 13.3854 7.23668C13.8021 7.80964 14.0104 8.44337 14.0104 9.13787C14.0104 9.65007 13.8368 10.1623 13.4895 10.6745ZM12.8515 8.82535C12.8081 8.48678 12.6995 8.222 12.5259 8.03102C12.361 7.83135 12.1483 7.73151 11.8878 7.73151C11.7142 7.73151 11.5493 7.81833 11.393 7.99195C11.2454 8.15689 11.1716 8.39997 11.1716 8.72117C11.1716 8.85139 11.189 8.99029 11.2237 9.13787C11.2584 9.27677 11.3149 9.40699 11.393 9.52853C11.4711 9.64139 11.571 9.73688 11.6925 9.81501C11.814 9.88446 11.9616 9.91919 12.1353 9.91919C12.4131 9.91919 12.604 9.83671 12.7082 9.67177C12.8124 9.49815 12.8645 9.28546 12.8645 9.0337C12.8645 8.99897 12.8601 8.96859 12.8515 8.94255C12.8515 8.90782 12.8515 8.86876 12.8515 8.82535ZM22.9939 10.8047C22.9505 11.0391 22.7551 11.1563 22.4079 11.1563C22.1648 11.1563 21.9999 11.0738 21.913 10.9088C21.8696 10.6745 21.8393 10.4618 21.8219 10.2708C21.8045 10.0711 21.7828 9.85842 21.7568 9.6327C21.7394 9.39831 21.7134 9.13353 21.6786 8.83837C21.6526 8.54321 21.6005 8.1786 21.5224 7.74454C21.505 7.57959 21.492 7.41899 21.4833 7.26273C21.4833 7.10646 21.479 6.95454 21.4703 6.80696C21.3054 7.03267 21.1448 7.24102 20.9885 7.43201C20.8322 7.623 20.6716 7.79662 20.5067 7.95288C20.307 8.25673 20.0119 8.57359 19.6212 8.90348H19.5431C19.3608 8.90348 19.1828 8.86441 19.0092 8.78628C18.8442 8.69947 18.7357 8.60832 18.6836 8.51282C18.5881 8.35656 18.4666 8.14821 18.319 7.88778C18.1801 7.62734 17.9978 7.32349 17.7721 6.97625L17.4465 6.48141C17.4031 6.70713 17.3554 6.99361 17.3033 7.34086C17.2599 7.67943 17.2078 8.0831 17.147 8.55189V8.74722C17.147 8.87744 17.1427 9.02502 17.134 9.18996C17.1253 9.35491 17.108 9.54155 17.0819 9.7499L16.9647 11.0391C16.9387 11.2908 16.7347 11.4167 16.3527 11.4167C16.2312 11.4167 16.1357 11.408 16.0662 11.3907C15.9968 11.3733 15.9403 11.3342 15.8969 11.2735C15.8535 11.2214 15.8232 11.1432 15.8058 11.0391C15.7971 10.9349 15.7928 10.7917 15.7928 10.6093C15.7928 10.0885 15.7971 9.82803 15.8058 9.82803V9.84105C15.8405 9.75424 15.8666 9.63705 15.8839 9.48946C15.91 9.34188 15.9273 9.19864 15.936 9.05974C15.9534 8.91216 15.9621 8.78628 15.9621 8.68211C15.9707 8.56925 15.9751 8.51282 15.9751 8.51282C15.9751 8.49546 15.9838 8.42601 16.0011 8.30447C16.0185 8.17426 16.0358 8.03536 16.0532 7.88778C16.0792 7.73151 16.101 7.58393 16.1183 7.44503C16.1357 7.29745 16.1444 7.19762 16.1444 7.14553V7.0674C16.1617 6.85905 16.1791 6.629 16.1964 6.37724C16.2138 6.12548 16.2399 5.84768 16.2746 5.54384L16.522 4.42396C16.6609 4.3111 16.8649 4.25468 17.134 4.25468C17.2729 4.25468 17.3945 4.28072 17.4986 4.33281C17.6375 4.53248 17.7721 4.7278 17.9023 4.91879C18.0412 5.10978 18.1801 5.31813 18.319 5.54384C18.4666 5.76955 18.6272 6.02999 18.8008 6.32515C18.9744 6.62031 19.1785 6.97625 19.4128 7.39294C19.7688 7.06306 19.9858 6.80262 20.0639 6.61163C20.09 6.60295 20.3634 6.23834 20.8843 5.5178L21.4573 4.78857C21.5267 4.75385 21.6222 4.73649 21.7438 4.73649C21.9868 4.73649 22.2082 4.81028 22.4079 4.95786C22.5641 5.6784 22.6423 6.19059 22.6423 6.49444V6.61163C22.6423 6.65504 22.6509 6.75921 22.6683 6.92416C22.6857 7.08042 22.7074 7.25405 22.7334 7.44503C22.7595 7.62734 22.7812 7.80096 22.7985 7.96591C22.8246 8.13085 22.8463 8.24371 22.8636 8.30447C22.8636 8.55623 22.8723 8.81667 22.8897 9.08579C22.9157 9.35491 22.9505 9.6327 22.9939 9.91919C23.0112 10.0234 23.0242 10.1189 23.0329 10.2057C23.0416 10.2925 23.0459 10.375 23.0459 10.4531C23.0459 10.5225 23.0416 10.5876 23.0329 10.6484C23.0242 10.7092 23.0112 10.7613 22.9939 10.8047ZM34.5551 9.7499C34.3902 10.0972 34.1211 10.375 33.7478 10.5833C33.3745 10.783 32.9578 10.8828 32.4977 10.8828C32.4369 10.8828 32.3371 10.8741 32.1982 10.8568C32.0593 10.8394 31.903 10.8047 31.7294 10.7526C31.5644 10.7005 31.3908 10.631 31.2085 10.5442C31.0349 10.4487 30.8743 10.3272 30.7267 10.1796C30.5791 10.0234 30.4576 9.83671 30.3621 9.61968C30.2666 9.40265 30.2189 9.14656 30.2189 8.85139C30.2102 8.46074 30.2623 8.10481 30.3751 7.7836C30.4967 7.46239 30.6876 7.13685 30.9481 6.80696L31.3648 6.27307C31.8509 5.94318 32.3978 5.77823 33.0055 5.77823C33.3354 5.77823 33.5959 5.839 33.7868 5.96054C33.9865 6.08208 34.0863 6.2557 34.0863 6.48141C34.0863 6.65504 34.0212 6.79828 33.891 6.91114C33.7695 7.01531 33.6089 7.0674 33.4092 7.0674C33.4005 7.0674 33.3658 7.06306 33.305 7.05438C33.2529 7.03701 33.1922 7.01965 33.1227 7.00229C33.0533 6.98493 32.9838 6.9719 32.9144 6.96322C32.8449 6.94586 32.7885 6.93718 32.7451 6.93718C32.5454 6.93718 32.3154 7.04135 32.0549 7.2497C31.8032 7.45805 31.6035 7.78794 31.4559 8.23937C31.3952 8.43035 31.3648 8.58662 31.3648 8.70815C31.3648 8.95123 31.4299 9.14221 31.5601 9.28111C31.699 9.42001 31.8509 9.52853 32.0159 9.60666C32.1808 9.67611 32.3327 9.72386 32.4716 9.7499C32.6105 9.76726 32.6843 9.77595 32.693 9.77595C32.8145 9.77595 32.9361 9.74122 33.0576 9.67177C33.1792 9.60232 33.2877 9.52419 33.3832 9.43738C33.4873 9.35056 33.5698 9.27677 33.6306 9.21601C33.6913 9.14656 33.7174 9.11183 33.7087 9.11183C33.7955 9.0337 33.8954 8.99463 34.0082 8.99463C34.1471 8.99463 34.273 9.06842 34.3858 9.21601C34.5074 9.35491 34.5682 9.49815 34.5682 9.64573C34.5682 9.68913 34.5638 9.72386 34.5551 9.7499ZM40.3597 10.4401C40.3163 10.5616 40.2295 10.6831 40.0993 10.8047C39.9691 10.9262 39.8432 10.987 39.7217 10.987C39.4699 10.987 39.305 10.809 39.2268 10.4531C39.1487 10.0972 39.1096 9.59364 39.1096 8.94255V8.82535C39.1096 8.49546 39.0836 8.25673 39.0315 8.10915C38.9881 7.95288 38.9577 7.85305 38.9403 7.80964C38.8449 7.60129 38.6973 7.49712 38.4976 7.49712C38.3761 7.49712 38.2502 7.52316 38.12 7.57525C37.9897 7.61866 37.8726 7.67509 37.7684 7.74454C37.6642 7.8053 37.573 7.86607 37.4949 7.92684C37.4255 7.98761 37.3821 8.03102 37.3647 8.05706C37.3473 8.11783 37.33 8.222 37.3126 8.36958C37.3039 8.51717 37.2952 8.68645 37.2866 8.87744C37.2779 9.06842 37.2692 9.26375 37.2605 9.46342C37.2518 9.66309 37.2432 9.8454 37.2345 10.0103C37.2345 10.1753 37.2345 10.3055 37.2345 10.401C37.2345 10.4965 37.2388 10.5356 37.2475 10.5182C37.2215 10.7526 37.0348 10.8698 36.6876 10.8698C36.4271 10.8698 36.2578 10.7873 36.1797 10.6224C36.1103 10.4574 36.0755 10.1753 36.0755 9.77595C36.0755 9.67177 36.0755 9.611 36.0755 9.59364C36.0842 9.57628 36.0929 9.53721 36.1016 9.47644C36.1103 9.40699 36.1233 9.28546 36.1406 9.11183C36.158 8.93821 36.1797 8.64304 36.2058 8.22634C36.2144 8.05272 36.2231 7.89646 36.2318 7.75756C36.2405 7.60998 36.2405 7.4841 36.2318 7.37992C36.2318 7.28443 36.2318 7.2063 36.2318 7.14553C36.2318 7.07608 36.2275 7.01965 36.2188 6.97625C36.2275 6.9502 36.2361 6.86773 36.2448 6.72883C36.2622 6.58993 36.2752 6.43801 36.2839 6.27307C36.3012 6.10812 36.3186 5.95186 36.336 5.80428C36.3533 5.6567 36.3707 5.55686 36.3881 5.50478C36.3881 5.32247 36.3924 5.11412 36.4011 4.87973C36.4098 4.63665 36.4401 4.41094 36.4922 4.20259C36.5443 3.99424 36.6225 3.82061 36.7266 3.68171C36.8395 3.53413 36.9957 3.46034 37.1954 3.46034C37.534 3.46034 37.7033 3.67737 37.7033 4.11144C37.7033 4.35451 37.6555 4.70176 37.56 5.15318C37.5427 5.38758 37.521 5.56988 37.4949 5.7001C37.4776 5.83032 37.4602 5.94318 37.4428 6.03867C37.4255 6.13417 37.4124 6.22532 37.4038 6.31213C37.3951 6.39894 37.3907 6.52048 37.3907 6.67674C37.6078 6.49444 37.8161 6.39026 38.0158 6.36422C38.2155 6.32949 38.4021 6.31213 38.5757 6.31213C39.0098 6.31213 39.357 6.43801 39.6175 6.68976C39.8779 6.94152 40.0732 7.35822 40.2035 7.93986C40.2121 8.14821 40.2165 8.31316 40.2165 8.43469C40.2252 8.54755 40.2338 8.67777 40.2425 8.82535C40.2599 8.96425 40.2773 9.15524 40.2946 9.39831C40.312 9.64139 40.3337 9.98864 40.3597 10.4401ZM46.9658 9.46342C47.122 9.5676 47.2002 9.69347 47.2002 9.84105C47.2002 9.91919 47.1785 10.0017 47.1351 10.0885C47.0917 10.1666 47.0352 10.2404 46.9658 10.3098C46.8963 10.3706 46.8225 10.4227 46.7444 10.4661C46.6663 10.5095 46.5881 10.5312 46.51 10.5312C46.4406 10.5052 46.3581 10.4618 46.2626 10.401C46.1671 10.3315 46.0716 10.2578 45.9761 10.1796C45.8806 10.0928 45.7895 9.99732 45.7027 9.89314C45.6245 9.78897 45.5638 9.68479 45.5203 9.58062L45.4292 9.80199C45.2643 10.1145 45.0038 10.4097 44.6479 10.6875C44.2138 10.7656 43.9621 10.8047 43.8926 10.8047C43.7277 10.8047 43.528 10.7786 43.2936 10.7265L42.5774 10.2187C42.2649 9.92353 42.1086 9.51985 42.1086 9.00766C42.1086 8.82535 42.1347 8.62568 42.1868 8.40865C42.2475 8.18294 42.33 7.95723 42.4342 7.73151C42.547 7.5058 42.6816 7.28443 42.8378 7.0674C42.9941 6.85037 43.1764 6.65504 43.3848 6.48141C43.6365 6.38592 43.8796 6.30779 44.114 6.24702C44.3484 6.17757 44.5263 6.13416 44.6479 6.1168C44.8128 5.9345 45.0082 5.84334 45.2339 5.84334C45.3641 5.84334 45.4769 5.90845 45.5724 6.03867C45.6766 6.16021 45.7634 6.31647 45.8329 6.50746C45.911 6.69845 45.9718 6.91114 46.0152 7.14553C46.0586 7.37124 46.089 7.58827 46.1063 7.79662L46.2756 8.48678C46.3277 8.70381 46.4102 8.89046 46.523 9.04672C46.6446 9.20298 46.7922 9.34188 46.9658 9.46342ZM44.9865 8.01799C44.9691 8.00931 44.904 7.73585 44.7911 7.19762C44.7477 7.19762 44.6826 7.19762 44.5958 7.19762C44.509 7.19762 44.4048 7.22366 44.2833 7.27575C44.1704 7.31915 44.0445 7.40163 43.9056 7.52316C43.7754 7.63602 43.6495 7.80964 43.528 8.04404C43.3457 8.38261 43.2545 8.72117 43.2545 9.05974C43.4021 9.34622 43.6322 9.57194 43.9447 9.73688C44.0402 9.71084 44.1183 9.68045 44.1791 9.64573C44.2485 9.611 44.3093 9.56325 44.3614 9.50249C44.4135 9.44172 44.4612 9.36793 44.5046 9.28111C44.5567 9.18562 44.6132 9.06842 44.6739 8.92952C44.7868 8.72986 44.8649 8.55623 44.9083 8.40865C44.9604 8.25239 44.9865 8.12217 44.9865 8.01799ZM52.6019 9.55457V9.65875C52.6019 9.71084 52.6019 9.80633 52.6019 9.94523C52.6106 10.0754 52.5976 10.21 52.5628 10.3489C52.5368 10.4878 52.4804 10.6137 52.3936 10.7265C52.3067 10.8307 52.1765 10.8828 52.0029 10.8828C51.6643 10.8828 51.4647 10.7482 51.4039 10.4791C51.4126 10.427 51.4169 10.3706 51.4169 10.3098C51.4169 10.2404 51.4169 10.1666 51.4169 10.0885C51.4169 10.0537 51.4169 9.92787 51.4169 9.71084C51.4169 9.48512 51.4082 9.24205 51.3909 8.98161C51.3822 8.72117 51.3561 8.4781 51.3127 8.25239C51.2693 8.01799 51.2042 7.87041 51.1174 7.80964C50.9177 7.67074 50.7398 7.60129 50.5835 7.60129C50.3752 7.60129 50.1972 7.6664 50.0496 7.79662C49.9107 7.91816 49.7935 8.16123 49.698 8.52585C49.6893 8.64738 49.6807 8.78628 49.672 8.94255C49.6633 9.09013 49.6503 9.25941 49.6329 9.4504C49.6329 9.59798 49.6373 9.76292 49.6459 9.94523C49.6546 10.1189 49.6676 10.3185 49.685 10.5442C49.685 10.7092 49.6199 10.8481 49.4897 10.9609C49.3595 11.0651 49.2119 11.1172 49.0469 11.1172C48.9167 11.1172 48.8125 11.0825 48.7344 11.013C48.6563 10.9436 48.5955 10.8524 48.5521 10.7396C48.5174 10.6267 48.4913 10.5052 48.474 10.375C48.4653 10.2447 48.461 10.1145 48.461 9.98429C48.461 9.8888 48.4653 9.79331 48.474 9.69781C48.4827 9.59364 48.4957 9.48946 48.513 9.38529L48.6172 8.13519L48.7214 7.51014C48.704 7.40597 48.6693 7.29311 48.6172 7.17157C48.5651 7.05004 48.5391 6.95454 48.5391 6.88509C48.5391 6.73751 48.5955 6.60295 48.7084 6.48141C48.8299 6.35988 48.9775 6.29911 49.1511 6.29911C49.2726 6.29911 49.3638 6.32515 49.4246 6.37724C49.4853 6.42065 49.5852 6.5335 49.7241 6.71581C49.8977 6.63768 50.0366 6.58993 50.1408 6.57257C50.2449 6.54652 50.3665 6.5335 50.5054 6.5335C50.9568 6.5335 51.3518 6.64202 51.6904 6.85905C52.0376 7.0674 52.2547 7.41899 52.3415 7.91382C52.3675 8.09613 52.3892 8.24805 52.4066 8.36958C52.4326 8.49112 52.4543 8.60832 52.4717 8.72117C52.489 8.83403 52.5064 8.95557 52.5238 9.08579C52.5411 9.20732 52.5672 9.36359 52.6019 9.55457Z" fill="#9CD300"/>
<path d="M19.697 21.3969C19.6676 21.6609 19.631 21.8955 19.587 22.1007C19.5577 22.306 19.4917 22.504 19.389 22.6946C19.2864 22.8705 19.1471 23.0612 18.9711 23.2664C18.8099 23.4571 18.5972 23.677 18.3333 23.9263C17.6442 24.5714 16.8817 24.9453 16.0459 25.048C15.8553 25.1213 15.606 25.2093 15.2981 25.3119C14.9902 25.3999 14.6236 25.5025 14.1984 25.6198L14.2644 27.0495C14.2937 27.2547 14.3157 27.46 14.3303 27.6653C14.345 27.8706 14.3523 28.0979 14.3523 28.3471C14.3523 28.5231 14.3523 28.7137 14.3523 28.919C14.3523 29.1243 14.323 29.3149 14.2644 29.4908C14.2204 29.6668 14.1251 29.8134 13.9784 29.9307C13.8465 30.048 13.6485 30.1067 13.3846 30.1067C13.106 30.1067 12.9007 30.0554 12.7687 29.9527C12.6368 29.8501 12.5488 29.7035 12.5048 29.5128C12.4608 29.3369 12.4315 29.1243 12.4168 28.875C12.4168 28.6257 12.3948 28.3618 12.3508 28.0832V28.1052C12.3362 27.9146 12.3215 27.6873 12.3069 27.4234C12.2922 27.1888 12.2775 26.9028 12.2629 26.5656C12.2482 26.2137 12.2262 25.8031 12.1969 25.3339V25.2019C12.1969 25.114 12.1896 24.9967 12.1749 24.85C12.1749 24.7034 12.1676 24.5494 12.1529 24.3882C12.1382 24.2269 12.1236 24.0876 12.1089 23.9703C12.1089 23.8383 12.1089 23.7503 12.1089 23.7063C12.1089 23.6184 12.1089 23.4644 12.1089 23.2444C12.1236 23.0098 12.1309 22.7606 12.1309 22.4966C12.1456 22.2327 12.1529 21.9834 12.1529 21.7488C12.1676 21.4996 12.1749 21.3089 12.1749 21.177C12.1749 20.9424 12.1602 20.7298 12.1309 20.5391C12.1162 20.3485 12.0942 20.1726 12.0649 20.0113C12.0649 19.982 12.0649 19.8866 12.0649 19.7254C12.0796 19.5641 12.0942 19.3881 12.1089 19.1975C12.1236 18.9922 12.1456 18.7943 12.1749 18.6036C12.2042 18.3984 12.2409 18.2297 12.2849 18.0978C12.6808 17.9072 13.1573 17.8118 13.7145 17.8118H13.8904C14.521 17.6212 15.1075 17.5259 15.65 17.5259C15.8553 17.5259 16.4345 17.6139 17.3876 17.7898L18.3553 18.3177C18.6192 18.479 18.8318 18.6476 18.9931 18.8236C19.1691 18.9849 19.3084 19.1828 19.411 19.4174C19.5137 19.652 19.587 19.9306 19.631 20.2532C19.675 20.5611 19.697 20.9424 19.697 21.3969ZM17.6295 21.7048C17.6735 21.4262 17.6955 21.177 17.6955 20.957C17.6955 20.5611 17.5342 20.2019 17.2116 19.8793C16.889 19.5421 16.3611 19.3734 15.628 19.3734C15.2908 19.3734 14.7776 19.4907 14.0884 19.7254C14.1177 20.0039 14.1397 20.3412 14.1544 20.7371C14.169 21.1183 14.1764 21.5655 14.1764 22.0787C14.1617 22.1081 14.1544 22.2547 14.1544 22.5186C14.1544 22.6506 14.1544 22.8119 14.1544 23.0025C14.1544 23.1785 14.1617 23.3837 14.1764 23.6184C14.3083 23.6037 14.455 23.5744 14.6163 23.5304C14.7922 23.4864 14.9535 23.4424 15.1001 23.3984C15.2468 23.3398 15.3714 23.2884 15.474 23.2444C15.5767 23.2005 15.628 23.1785 15.628 23.1785C16.6837 22.9292 17.3509 22.438 17.6295 21.7048ZM25.7547 18.5157C25.784 18.633 25.7987 18.7429 25.7987 18.8456C25.7987 19.3148 25.6594 19.7107 25.3808 20.0333C24.9409 20.2092 24.501 20.2972 24.0611 20.2972C23.7825 20.1212 23.5479 19.9233 23.3573 19.7034C23.1813 19.4688 23.0934 19.2415 23.0934 19.0215C23.0934 18.8309 23.3133 18.3617 23.7532 17.6139C23.9438 17.6432 24.1418 17.6652 24.347 17.6799C24.567 17.6945 24.7649 17.7312 24.9409 17.7898C25.1315 17.8485 25.2928 17.9365 25.4248 18.0538C25.5714 18.1564 25.6814 18.3104 25.7547 18.5157ZM25.0509 22.1887V22.4746C25.0509 22.548 25.0509 22.6286 25.0509 22.7166C25.0509 22.8046 25.0362 22.8852 25.0069 22.9585L24.8309 23.9483V24.1462C24.8309 24.2342 24.8236 24.3515 24.8089 24.4981C24.7943 24.6448 24.7723 24.7914 24.7429 24.938C24.7283 25.0846 24.7136 25.2239 24.699 25.3559C24.6843 25.4879 24.677 25.5978 24.677 25.6858C24.677 25.7591 24.677 25.8178 24.677 25.8618C24.6916 25.9058 24.699 25.9644 24.699 26.0377C24.699 26.1697 24.6843 26.3163 24.655 26.4776C24.6256 26.6242 24.611 26.7929 24.611 26.9835C24.611 27.1594 24.633 27.3427 24.677 27.5333C24.5157 28.1932 24.1784 28.5231 23.6652 28.5231C22.9467 28.5231 22.5875 27.8486 22.5875 26.4996C22.5875 26.0451 22.6095 25.5978 22.6535 25.158C22.6975 24.7034 22.7488 24.2855 22.8074 23.9043C22.8661 23.523 22.9247 23.1931 22.9834 22.9145C23.0567 22.6213 23.1154 22.394 23.1593 22.2327C23.3793 21.9101 23.6872 21.7488 24.0831 21.7488C24.4643 21.7488 24.7869 21.8955 25.0509 22.1887ZM36.0391 26.7635C35.7605 27.3501 35.306 27.8193 34.6755 28.1712C34.0449 28.5084 33.3411 28.6771 32.564 28.6771C32.4614 28.6771 32.2927 28.6624 32.0581 28.6331C31.8235 28.6037 31.5596 28.5451 31.2663 28.4571C30.9877 28.3691 30.6945 28.2518 30.3866 28.1052C30.0933 27.9439 29.822 27.7386 29.5728 27.4894C29.3235 27.2254 29.1182 26.9102 28.9569 26.5436C28.7956 26.177 28.715 25.7445 28.715 25.2459C28.7003 24.5861 28.7883 23.9849 28.9789 23.4424C29.1842 22.8999 29.5068 22.35 29.9467 21.7928L30.6505 20.8911C31.4716 20.3339 32.3954 20.0553 33.4218 20.0553C33.979 20.0553 34.4188 20.1579 34.7414 20.3632C35.0787 20.5685 35.2473 20.8617 35.2473 21.243C35.2473 21.5362 35.1373 21.7782 34.9174 21.9688C34.7121 22.1447 34.4408 22.2327 34.1036 22.2327C34.0889 22.2327 34.0303 22.2254 33.9276 22.2107C33.8397 22.1814 33.737 22.1521 33.6197 22.1227C33.5024 22.0934 33.3851 22.0714 33.2678 22.0568C33.1505 22.0274 33.0552 22.0128 32.9819 22.0128C32.6446 22.0128 32.2561 22.1887 31.8162 22.5406C31.391 22.8925 31.0537 23.4497 30.8044 24.2122C30.7018 24.5348 30.6505 24.7987 30.6505 25.004C30.6505 25.4146 30.7605 25.7371 30.9804 25.9717C31.215 26.2064 31.4716 26.3896 31.7502 26.5216C32.0288 26.6389 32.2854 26.7196 32.52 26.7635C32.7546 26.7929 32.8792 26.8075 32.8939 26.8075C33.0992 26.8075 33.3045 26.7489 33.5097 26.6316C33.715 26.5143 33.8983 26.3823 34.0596 26.2357C34.2356 26.089 34.3749 25.9644 34.4775 25.8618C34.5801 25.7445 34.6241 25.6858 34.6095 25.6858C34.7561 25.5539 34.9247 25.4879 35.1153 25.4879C35.3499 25.4879 35.5626 25.6125 35.7532 25.8618C35.9585 26.0964 36.0611 26.3383 36.0611 26.5876C36.0611 26.6609 36.0538 26.7196 36.0391 26.7635ZM45.3594 26.9615C45.374 27.0201 45.3814 27.0715 45.3814 27.1155C45.396 27.1594 45.4034 27.2108 45.4034 27.2694C45.4034 27.5773 45.3081 27.8266 45.1174 28.0172C44.9268 28.2078 44.7069 28.3031 44.4576 28.3031C44.2377 28.3031 44.0397 28.2078 43.8638 28.0172C43.6878 27.8266 43.4972 27.5847 43.2919 27.2914C43.1013 26.9981 42.8813 26.6756 42.6321 26.3237C42.3828 25.9717 42.0749 25.6345 41.7083 25.3119C41.6497 25.2533 41.5397 25.1726 41.3784 25.07C41.2171 24.9527 41.0118 24.806 40.7626 24.6301L40.6306 24.6961C40.6013 24.7987 40.5793 24.9233 40.5646 25.07C40.5206 25.3192 40.4986 25.6492 40.4986 26.0597C40.4986 26.177 40.5133 26.309 40.5426 26.4556C40.5426 26.4849 40.5353 26.5143 40.5206 26.5436C40.5206 26.5729 40.5206 26.6096 40.5206 26.6536C40.5206 26.7855 40.5206 26.9615 40.5206 27.1814C40.5353 27.3867 40.5499 27.592 40.5646 27.7973C40.5793 27.9879 40.5866 28.1565 40.5866 28.3031C40.6013 28.4498 40.6086 28.5158 40.6086 28.5011C40.6086 28.7504 40.4986 28.941 40.2787 29.0729C40.0587 29.2049 39.8168 29.2709 39.5529 29.2709C39.1716 29.2709 38.915 29.0876 38.7831 28.721C38.6658 28.3545 38.6071 27.7313 38.6071 26.8515C38.6071 26.265 38.6291 25.7371 38.6731 25.2679C38.7171 24.7841 38.7391 24.3588 38.7391 23.9923V23.6184C38.7391 23.545 38.7464 23.4204 38.7611 23.2444C38.7904 23.0685 38.8124 22.8705 38.8271 22.6506C38.8564 22.4307 38.8784 22.2107 38.893 21.9908C38.9224 21.7562 38.937 21.5582 38.937 21.3969V21.155C38.9517 21.111 38.9737 20.913 39.003 20.5611C39.0323 20.2092 39.0837 19.806 39.157 19.3514C39.2303 18.8822 39.3183 18.4057 39.4209 17.9218C39.5382 17.4233 39.6775 17.0054 39.8388 16.6681C39.9414 16.4482 40.1687 16.3382 40.5206 16.3382C41.1804 16.3382 41.5104 16.5948 41.5104 17.108C41.5104 17.2253 41.481 17.4453 41.4224 17.7679C41.3637 18.0904 41.2978 18.4423 41.2244 18.8236C41.1658 19.1902 41.1071 19.5494 41.0485 19.9013C41.0045 20.2532 40.9825 20.5171 40.9825 20.6931C40.9532 20.7371 40.8872 21.287 40.7846 22.3427C41.0045 22.196 41.2024 22.0494 41.3784 21.9028C41.569 21.7415 41.767 21.5802 41.9722 21.4189C42.1775 21.2576 42.4195 21.089 42.6981 20.913C42.9767 20.7224 43.3212 20.5098 43.7318 20.2752C43.7611 20.2752 43.7831 20.2752 43.7978 20.2752C43.8124 20.2605 43.8344 20.2532 43.8638 20.2532C44.0837 20.2532 44.3036 20.3559 44.5236 20.5611C44.7435 20.7664 44.8535 21.001 44.8535 21.265C44.8535 21.4262 44.8462 21.5436 44.8315 21.6169C44.8168 21.6755 44.7509 21.7488 44.6336 21.8368C44.5309 21.9248 44.355 22.0421 44.1057 22.1887C43.8564 22.3353 43.5045 22.5626 43.05 22.8705C43.0206 22.9439 42.7787 23.1125 42.3242 23.3764C42.5001 23.523 42.6101 23.6184 42.6541 23.6623C42.7127 23.7063 42.786 23.7796 42.874 23.8823C42.962 23.9703 43.1086 24.1316 43.3139 24.3662C43.5338 24.5861 43.9004 24.9527 44.4136 25.4659C44.6922 25.8471 45.0075 26.3456 45.3594 26.9615Z" fill="#9CD300"/>
</svg>
