<?xml version="1.0" encoding="UTF-8"?>
<svg id="Layer_1" xmlns="http://www.w3.org/2000/svg" version="1.1" viewBox="0 0 1024 1024">
  <!-- Generator: Adobe Illustrator 29.1.0, SVG Export Plug-In . SVG Version: 2.1.0 Build 142)  -->
  <defs>
    <style>
      .st0 {
        fill: #70c802;
      }

      .st1 {
        fill: #f9f5eb;
      }

      .st2 {
        fill: #fff;
      }

      .st3 {
        fill: #687a26;
      }
    </style>
  </defs>
  <rect class="st3" x="180.61" y="171.49" width="772.71" height="768.6"/>
  <path class="st2" d="M513.02,195.77c-123.24-8.4-151.72,61.06-159.76,219.5-8.22,161.97,87.27,318.71,124.1,320.58,36.83,1.87,143.63-169.23,154.02-301.14,10.39-131.91,24.78-229.18-118.36-238.94Z"/>
  <path class="st0" d="M583.04,192.13c30.16-30.29,93.83-117.91,90.1-125.67-4.34-9.02-66.18-15.88-74.26-5.48-8.09,10.41-48.53,85.18-56.28,77.73-7.74-7.46,36.65-123.59.73-130.77-35.92-7.18-75.23-13.62-76.75,6.66-1.51,20.28-4.82,134.76-19.18,119.86-14.36-14.9-41.05-92.63-60.2-92.99-19.15-.36-54.27,9.53-54.37,15.21-.1,5.13,50.63,112.45,85.82,137.41,24.44-10.62,55.01-15.12,93.23-13.73,28.44,1.04,51.85,5.08,71.16,11.76Z"/>
  <rect class="st0" x="70.69" y="254.34" width="772.71" height="768.6"/>
  <path d="M247.45,405.27c-14.14,0-26.58-10.26-28.87-24.67-7.45-46.7-5.97-96.01,4.27-142.6,11.44-52.08,33.59-97.92,64.05-132.55,46.5-52.88,111.7-79.61,188.61-77.31,86.02,2.57,151.06,46.71,188.07,127.62,32.87,71.86,37.88,159.84,36.29,220.99-.42,16.16-13.87,28.85-30.02,28.5-16.16-.42-28.92-13.86-28.5-30.02,1.43-54.97-2.8-133.44-31.01-195.11-27.89-60.97-72.57-91.54-136.58-93.46-59.74-1.79-107.79,17.54-142.89,57.45-56.67,64.45-64.76,162.71-54.46,227.27,2.55,15.97-8.33,30.97-24.3,33.52-1.56.25-3.11.37-4.65.37Z"/>
  <g>
    <path class="st1" d="M199.82,579.23c-.6,3.24-3.3,4.86-8.1,4.86-3.36,0-5.64-1.14-6.84-3.42-.6-3.24-1.02-6.21-1.26-8.91-.24-2.7-.51-5.64-.81-8.82-.3-3.18-.66-6.81-1.08-10.9-.42-4.08-1.17-9.12-2.25-15.13-.24-2.28-.39-4.5-.45-6.66-.06-2.16-.15-4.26-.27-6.3-2.28,3.12-4.5,6-6.66,8.64-2.16,2.64-4.38,5.04-6.66,7.2-2.76,4.2-6.84,8.58-12.25,13.14h-1.08c-2.52,0-4.95-.57-7.29-1.71-2.34-1.14-3.87-2.37-4.59-3.69-1.32-2.16-2.97-5.04-4.95-8.64-1.98-3.6-4.53-7.8-7.65-12.6l-4.5-6.84c-.6,3.12-1.23,7.05-1.89,11.79-.66,4.74-1.41,10.35-2.25,16.84v2.7c0,1.8-.06,3.84-.18,6.12-.12,2.28-.36,4.86-.72,7.74l-1.62,17.83c-.36,3.48-3.18,5.22-8.46,5.22-1.68,0-3-.12-3.96-.36-.96-.24-1.74-.75-2.34-1.53-.6-.78-.99-1.89-1.17-3.33s-.27-3.42-.27-5.94c0-7.2.06-10.8.18-10.8v.18c.48-1.2.87-2.82,1.17-4.86.3-2.04.54-4.05.72-6.03.18-1.98.33-4.47.45-7.47,0-.24.12-1.23.36-2.97.24-1.74.51-3.66.81-5.76.3-2.1.57-4.14.81-6.12.24-1.98.36-3.33.36-4.05v-1.08c.24-2.88.48-6.06.72-9.54.24-3.48.6-7.32,1.08-11.53l3.42-15.49c1.92-1.56,4.74-2.34,8.46-2.34,1.92,0,3.6.36,5.04,1.08,1.92,2.76,3.81,5.46,5.67,8.1,1.86,2.64,3.78,5.52,5.76,8.64,1.98,3.12,4.17,6.73,6.57,10.81,2.4,4.08,5.22,9,8.46,14.77,4.92-4.56,7.92-8.16,9-10.8.36-.12,4.14-5.16,11.34-15.13l7.92-10.08c.96-.48,2.28-.72,3.96-.72,3.36,0,6.42,1.02,9.18,3.06,2.16,9.97,3.24,17.05,3.24,21.25v1.62c0,.6.12,2.01.36,4.23.24,2.22.54,4.62.9,7.2.36,2.58.69,5.01.99,7.29.3,2.28.57,3.84.81,4.68,0,3.48.15,7.09.45,10.8.3,3.72.75,7.56,1.35,11.53.24,1.44.42,2.76.54,3.96.12,1.2.18,2.34.18,3.42,0,.96-.06,1.86-.18,2.7-.12.84-.3,1.56-.54,2.16Z"/>
    <path class="st1" d="M263.57,577.43c-1.56,1.08-4.08,2.13-7.56,3.15-3.48,1.02-7.08,1.89-10.8,2.61l-7.38-1.44c-1.08-.36-2.85-1.2-5.31-2.52-2.46-1.32-4.95-3.33-7.47-6.03-2.52-2.7-4.74-6.18-6.66-10.44-1.92-4.26-2.88-9.45-2.88-15.58,0-2.16.51-4.71,1.53-7.65,1.02-2.94,2.55-5.7,4.59-8.28,2.04-2.58,4.59-4.77,7.65-6.57,3.06-1.8,6.63-2.7,10.71-2.7,8.16,0,15.54,2.64,22.15,7.92,5.76,7.92,8.64,16.69,8.64,26.29,0,7.09-2.4,14.17-7.2,21.25ZM254.74,551.86c-.6-4.68-2.07-8.37-4.41-11.07s-5.31-4.05-8.91-4.05c-2.4,0-4.65,1.17-6.75,3.51-2.1,2.34-3.15,5.73-3.15,10.17,0,1.8.24,3.69.72,5.67.48,1.98,1.26,3.78,2.34,5.4s2.46,2.94,4.14,3.96c1.68,1.02,3.72,1.53,6.12,1.53,3.84,0,6.48-1.17,7.92-3.51,1.44-2.34,2.16-5.25,2.16-8.73,0-.48-.03-.93-.09-1.35-.06-.42-.09-.93-.09-1.53Z"/>
    <path class="st1" d="M386.01,579.23c-.6,3.24-3.3,4.86-8.1,4.86-3.36,0-5.64-1.14-6.84-3.42-.6-3.24-1.02-6.21-1.26-8.91-.24-2.7-.51-5.64-.81-8.82-.3-3.18-.66-6.81-1.08-10.9-.42-4.08-1.17-9.12-2.25-15.13-.24-2.28-.39-4.5-.45-6.66-.06-2.16-.15-4.26-.27-6.3-2.28,3.12-4.5,6-6.66,8.64-2.16,2.64-4.38,5.04-6.66,7.2-2.76,4.2-6.84,8.58-12.25,13.14h-1.08c-2.52,0-4.95-.57-7.29-1.71-2.34-1.14-3.87-2.37-4.59-3.69-1.32-2.16-2.97-5.04-4.95-8.64-1.98-3.6-4.53-7.8-7.65-12.6l-4.5-6.84c-.6,3.12-1.23,7.05-1.89,11.79-.66,4.74-1.41,10.35-2.25,16.84v2.7c0,1.8-.06,3.84-.18,6.12-.12,2.28-.36,4.86-.72,7.74l-1.62,17.83c-.36,3.48-3.18,5.22-8.46,5.22-1.68,0-3-.12-3.96-.36-.96-.24-1.74-.75-2.34-1.53-.6-.78-.99-1.89-1.17-3.33-.18-1.44-.27-3.42-.27-5.94,0-7.2.06-10.8.18-10.8v.18c.48-1.2.87-2.82,1.17-4.86.3-2.04.54-4.05.72-6.03.18-1.98.33-4.47.45-7.47,0-.24.12-1.23.36-2.97.24-1.74.51-3.66.81-5.76.3-2.1.57-4.14.81-6.12.24-1.98.36-3.33.36-4.05v-1.08c.24-2.88.48-6.06.72-9.54.24-3.48.6-7.32,1.08-11.53l3.42-15.49c1.92-1.56,4.74-2.34,8.46-2.34,1.92,0,3.6.36,5.04,1.08,1.92,2.76,3.81,5.46,5.67,8.1,1.86,2.64,3.78,5.52,5.76,8.64,1.98,3.12,4.17,6.73,6.57,10.81,2.4,4.08,5.22,9,8.46,14.77,4.92-4.56,7.92-8.16,9-10.8.36-.12,4.14-5.16,11.34-15.13l7.92-10.08c.96-.48,2.28-.72,3.96-.72,3.36,0,6.42,1.02,9.18,3.06,2.16,9.97,3.24,17.05,3.24,21.25v1.62c0,.6.12,2.01.36,4.23.24,2.22.54,4.62.9,7.2.36,2.58.69,5.01.99,7.29.3,2.28.57,3.84.81,4.68,0,3.48.15,7.09.45,10.8.3,3.72.75,7.56,1.35,11.53.24,1.44.42,2.76.54,3.96.12,1.2.18,2.34.18,3.42,0,.96-.06,1.86-.18,2.7-.12.84-.3,1.56-.54,2.16Z"/>
    <path class="st1" d="M527.9,564.64c-2.28,4.8-6,8.61-11.16,11.43-5.16,2.82-10.92,4.23-17.29,4.23-.84,0-2.22-.12-4.14-.36-1.92-.24-4.05-.72-6.39-1.44-2.34-.72-4.74-1.71-7.2-2.97-2.46-1.26-4.71-2.94-6.75-5.04-2.04-2.1-3.72-4.65-5.04-7.65-1.32-3-1.98-6.54-1.98-10.63-.12-5.4.63-10.32,2.25-14.77,1.62-4.44,4.23-8.94,7.83-13.5l5.76-7.38c6.72-4.56,14.28-6.84,22.69-6.84,4.56,0,8.19.84,10.89,2.52,2.7,1.68,4.05,4.08,4.05,7.2,0,2.4-.87,4.35-2.61,5.85-1.74,1.5-3.99,2.25-6.75,2.25-.12,0-.57-.09-1.35-.27-.78-.18-1.65-.39-2.61-.63-.96-.24-1.92-.45-2.88-.63-.96-.18-1.74-.27-2.34-.27-2.76,0-5.91,1.44-9.45,4.32-3.54,2.88-6.33,7.44-8.37,13.68-.84,2.64-1.26,4.8-1.26,6.48,0,3.36.93,6,2.79,7.92,1.86,1.92,3.93,3.39,6.21,4.41,2.28,1.02,4.38,1.68,6.3,1.98,1.92.3,2.94.45,3.06.45,1.68,0,3.36-.48,5.04-1.44,1.68-.96,3.21-2.04,4.59-3.24,1.38-1.2,2.49-2.25,3.33-3.15.84-.9,1.2-1.35,1.08-1.35,1.2-1.08,2.58-1.62,4.14-1.62,1.92,0,3.69.99,5.31,2.97,1.62,1.98,2.43,3.99,2.43,6.03,0,.6-.06,1.08-.18,1.44Z"/>
    <path class="st1" d="M599.21,574.19c-.6,1.68-1.8,3.36-3.6,5.04-1.8,1.68-3.54,2.52-5.22,2.52-3.48,0-5.76-2.46-6.84-7.38-1.08-4.92-1.62-11.88-1.62-20.89v-1.62c0-4.56-.33-7.89-.99-9.99-.66-2.1-1.11-3.45-1.35-4.05-1.32-2.88-3.36-4.32-6.12-4.32-1.68,0-3.42.33-5.22.99-1.8.66-3.42,1.44-4.86,2.34-1.44.9-2.67,1.77-3.69,2.61-1.02.84-1.65,1.44-1.89,1.8-.24.84-.45,2.28-.63,4.32-.18,2.04-.33,4.38-.45,7.02-.12,2.64-.24,5.34-.36,8.1-.12,2.76-.21,5.28-.27,7.56-.06,2.28-.09,4.08-.09,5.4s.06,1.86.18,1.62c-.36,3.24-2.94,4.86-7.74,4.86-3.6,0-5.91-1.14-6.93-3.42-1.02-2.28-1.53-6.18-1.53-11.7,0-1.44.03-2.28.09-2.52.06-.24.15-.81.27-1.71.12-.9.3-2.55.54-4.95.24-2.4.54-6.48.9-12.24.12-2.4.24-4.59.36-6.57.12-1.98.12-3.69,0-5.13v-3.33c0-.9-.06-1.65-.18-2.25.12-.36.27-1.5.45-3.42.18-1.92.36-4.02.54-6.3.18-2.28.39-4.44.63-6.48.24-2.04.48-3.42.72-4.14,0-2.52.06-5.43.18-8.73.12-3.3.54-6.39,1.26-9.27s1.83-5.31,3.33-7.29c1.5-1.98,3.63-2.97,6.39-2.97,4.68,0,7.02,3,7.02,9,0,3.36-.66,8.16-1.98,14.41-.24,3.24-.51,5.76-.81,7.56-.3,1.8-.57,3.36-.81,4.68-.24,1.32-.42,2.58-.54,3.78-.12,1.2-.18,2.88-.18,5.04,3-2.52,5.88-3.99,8.64-4.41,2.76-.42,5.34-.63,7.74-.63,6,0,10.8,1.74,14.41,5.22,3.6,3.48,6.3,9.24,8.11,17.29.12,2.88.21,5.13.27,6.75.06,1.62.18,3.42.36,5.4.18,1.98.39,4.65.63,8.01.24,3.36.54,8.16.9,14.41Z"/>
    <path class="st1" d="M681.5,560.68c2.16,1.44,3.24,3.18,3.24,5.22,0,1.08-.3,2.19-.9,3.33-.6,1.14-1.38,2.16-2.34,3.06-.96.9-1.98,1.65-3.06,2.25-1.08.6-2.16.9-3.24.9-.96-.36-2.1-.99-3.42-1.89-1.32-.9-2.64-1.92-3.96-3.06-1.32-1.14-2.55-2.43-3.69-3.87-1.14-1.44-2.01-2.88-2.61-4.32l-1.26,3.06c-2.28,4.32-5.88,8.4-10.8,12.24-6,1.08-9.48,1.62-10.44,1.62-2.28,0-5.04-.36-8.28-1.08l-9.91-7.02c-4.32-4.08-6.48-9.66-6.48-16.75,0-2.52.39-5.31,1.17-8.37.78-3.06,1.92-6.15,3.42-9.27,1.5-3.12,3.33-6.18,5.49-9.18,2.16-3,4.68-5.7,7.57-8.1,3.48-1.32,6.84-2.43,10.08-3.33,3.24-.9,5.7-1.47,7.38-1.71,2.28-2.52,4.98-3.78,8.1-3.78,1.8,0,3.39.87,4.77,2.61,1.38,1.74,2.58,3.93,3.6,6.57,1.02,2.64,1.83,5.55,2.43,8.73.6,3.18,1.02,6.21,1.26,9.09l2.34,9.54c.72,3,1.89,5.58,3.51,7.74,1.62,2.16,3.63,4.08,6.03,5.76ZM654.13,540.69c-.24-.12-1.14-3.9-2.7-11.34h-2.7c-1.2,0-2.61.33-4.23.99-1.62.66-3.36,1.8-5.22,3.42-1.86,1.62-3.63,4.05-5.31,7.29-2.52,4.68-3.78,9.36-3.78,14.05,2.04,3.96,5.22,7.09,9.54,9.36,1.32-.36,2.43-.78,3.33-1.26.9-.48,1.71-1.14,2.43-1.98.72-.84,1.41-1.89,2.07-3.15.66-1.26,1.41-2.85,2.25-4.77,1.56-2.76,2.67-5.19,3.33-7.29.66-2.1.99-3.87.99-5.31Z"/>
    <path class="st1" d="M750.47,561.94v1.44c0,.72.03,2.01.09,3.87.06,1.86-.12,3.75-.54,5.67-.42,1.92-1.23,3.63-2.43,5.13-1.2,1.5-3,2.25-5.4,2.25-4.68,0-7.44-1.86-8.28-5.58.12-.72.18-1.53.18-2.43v-8.28c0-3.06-.09-6.39-.27-9.99-.18-3.6-.57-6.99-1.17-10.17-.6-3.18-1.5-5.19-2.7-6.03-2.76-1.92-5.22-2.88-7.38-2.88-2.88,0-5.31.87-7.29,2.61-1.98,1.74-3.63,5.13-4.95,10.17-.12,1.68-.24,3.57-.36,5.67-.12,2.1-.3,4.47-.54,7.11,0,2.04.06,4.29.18,6.75.12,2.46.3,5.25.54,8.37,0,2.28-.9,4.17-2.7,5.67-1.8,1.5-3.85,2.25-6.12,2.25-1.8,0-3.24-.48-4.32-1.44s-1.89-2.22-2.43-3.78c-.54-1.56-.9-3.24-1.08-5.04-.18-1.8-.27-3.6-.27-5.4,0-1.32.06-2.67.18-4.05.12-1.38.3-2.79.54-4.23l1.44-17.29,1.44-8.64c-.24-1.44-.72-3-1.44-4.68-.72-1.68-1.08-3-1.08-3.96,0-2.04.81-3.9,2.43-5.58,1.62-1.68,3.63-2.52,6.03-2.52,1.68,0,2.94.33,3.78.99.84.66,2.22,2.25,4.14,4.77,2.4-1.08,4.32-1.77,5.76-2.07,1.44-.3,3.12-.45,5.04-.45,6.24,0,11.73,1.47,16.48,4.41,4.74,2.94,7.71,7.83,8.91,14.68.36,2.52.69,4.62.99,6.3.3,1.68.57,3.3.81,4.86.24,1.56.48,3.21.72,4.95.24,1.74.6,3.93,1.08,6.57Z"/>
  </g>
  <g>
    <path class="st1" d="M354.9,739.2c-.41,3.65-.86,6.9-1.37,9.73-.51,2.84-1.47,5.53-2.89,8.06-1.42,2.54-3.3,5.17-5.63,7.91-2.33,2.74-5.32,5.83-8.97,9.27-9.53,8.93-20.07,14.09-31.63,15.51-2.64,1.02-6.08,2.18-10.34,3.5-4.26,1.32-9.33,2.79-15.21,4.41l.91,19.77c.4,2.84.71,5.68.91,8.52.2,2.84.3,5.98.3,9.43v7.91c0,2.84-.36,5.47-1.06,7.91-.71,2.43-2.03,4.46-3.95,6.08-1.93,1.62-4.71,2.43-8.36,2.43-3.85,0-6.69-.71-8.52-2.13-1.82-1.42-3.04-3.4-3.65-5.93-.61-2.54-.96-5.53-1.06-8.97-.1-3.44-.46-7.09-1.06-10.95v.3c-.2-2.63-.41-5.78-.61-9.43-.2-3.24-.41-7.25-.61-12.01-.2-4.76-.51-10.39-.91-16.88v-1.82c0-1.22-.05-2.84-.15-4.87-.1-2.02-.26-4.15-.46-6.39-.2-2.23-.36-4.21-.46-5.93-.11-1.72-.15-2.89-.15-3.5,0-1.22.05-3.4.15-6.54.1-3.14.2-6.54.3-10.19.1-3.65.2-7.15.3-10.49.1-3.35.15-5.93.15-7.75,0-3.24-.15-6.18-.46-8.82-.3-2.63-.66-5.07-1.06-7.3,0-.4.05-1.72.15-3.95.1-2.23.25-4.71.46-7.45.2-2.74.5-5.48.91-8.21.4-2.74.91-5.02,1.52-6.84,5.47-2.63,12.06-3.95,19.77-3.95h2.43c8.72-2.63,16.83-3.95,24.33-3.95,2.84,0,10.84,1.22,24.03,3.65l13.38,7.3c3.65,2.23,6.64,4.52,8.97,6.84,2.33,2.33,4.21,5.12,5.63,8.36,1.42,3.24,2.43,7.05,3.04,11.4.61,4.36.91,9.69.91,15.97ZM326.31,743.46c.61-3.85.91-7.3.91-10.34,0-5.48-2.23-10.49-6.69-15.05-4.46-4.56-11.76-6.84-21.9-6.84-4.67,0-11.76,1.63-21.29,4.87.4,3.85.71,8.47.91,13.84.2,5.38.3,11.61.3,18.71-.2.41-.3,2.43-.3,6.08v6.54c0,2.54.1,5.43.3,8.67,1.82-.2,3.9-.61,6.23-1.22,2.33-.61,4.51-1.27,6.54-1.98,2.02-.71,4.46-1.67,7.3-2.89,14.6-3.44,23.82-10.24,27.68-20.38Z"/>
    <path class="st1" d="M413.59,750.15v7.3c0,1.22-.2,2.33-.61,3.35l-2.43,13.69v2.74c0,1.22-.1,2.84-.3,4.87-.2,2.03-.46,4.06-.76,6.08-.3,2.03-.56,3.95-.76,5.78-.2,1.82-.3,3.35-.3,4.56,0,1.02.05,1.82.15,2.43.1.61.15,1.42.15,2.43,0,1.82-.2,3.8-.61,5.93-.41,2.13-.61,4.52-.61,7.15,0,2.43.3,4.97.91,7.6-2.23,9.12-6.9,13.68-13.99,13.68-9.94,0-14.9-9.32-14.9-27.98,0-6.28.3-12.52.91-18.71.61-6.18,1.32-11.91,2.13-17.18.81-5.27,1.67-9.88,2.58-13.84.91-3.95,1.67-7.04,2.28-9.28,3.04-4.46,7.3-6.69,12.77-6.69s9.73,2.03,13.38,6.08ZM423.33,699.36c.4,1.63.61,3.14.61,4.56,0,6.49-1.93,11.96-5.78,16.42-6.08,2.43-12.17,3.65-18.25,3.65-3.85-2.43-7.05-5.22-9.58-8.36-2.54-3.14-3.8-6.23-3.8-9.28,0-2.63,3.04-9.12,9.12-19.46,2.63.41,5.42.71,8.36.91,2.94.2,5.67.71,8.21,1.52,2.53.81,4.76,1.98,6.69,3.5,1.93,1.52,3.39,3.7,4.41,6.54Z"/>
    <path class="st1" d="M550.45,813.41c-3.85,8.11-10.14,14.55-18.86,19.31-8.72,4.77-18.45,7.15-29.2,7.15-1.42,0-3.75-.2-6.99-.61-3.25-.4-6.84-1.22-10.8-2.43-3.95-1.22-8.01-2.89-12.17-5.02-4.16-2.13-7.96-4.97-11.41-8.52-3.45-3.54-6.29-7.85-8.52-12.93-2.23-5.07-3.35-11.05-3.35-17.94-.2-9.12,1.06-17.44,3.8-24.94,2.74-7.5,7.15-15.1,13.23-22.81l9.73-12.47c11.35-7.7,24.13-11.56,38.32-11.56,7.7,0,13.84,1.42,18.4,4.26,4.56,2.84,6.84,6.89,6.84,12.17,0,4.06-1.47,7.35-4.41,9.88-2.94,2.54-6.74,3.8-11.41,3.8-.2,0-.96-.15-2.28-.45-1.32-.31-2.79-.66-4.41-1.07-1.63-.4-3.24-.76-4.87-1.06-1.63-.3-2.94-.46-3.95-.46-4.67,0-9.99,2.43-15.97,7.3-5.98,4.87-10.7,12.57-14.14,23.11-1.42,4.46-2.13,8.11-2.13,10.95,0,5.68,1.57,10.14,4.71,13.38,3.14,3.25,6.64,5.73,10.49,7.45,3.85,1.72,7.4,2.84,10.65,3.35,3.24.51,4.97.76,5.17.76,2.84,0,5.67-.81,8.52-2.43,2.84-1.62,5.42-3.44,7.75-5.48,2.33-2.02,4.21-3.8,5.63-5.32,1.42-1.52,2.02-2.28,1.82-2.28,2.02-1.82,4.36-2.74,7-2.74,3.24,0,6.23,1.67,8.97,5.02,2.74,3.35,4.11,6.74,4.11,10.19,0,1.02-.1,1.82-.3,2.43Z"/>
    <path class="st1" d="M664.19,816.14c.2.81.35,1.52.46,2.13.1.61.15,1.32.15,2.13,0,4.26-1.32,7.71-3.95,10.34-2.64,2.64-5.68,3.95-9.12,3.95-3.04,0-5.78-1.32-8.21-3.95-2.43-2.63-5.02-5.98-7.76-10.04-2.74-4.05-5.83-8.52-9.28-13.38-3.45-4.87-7.71-9.53-12.77-13.99-.81-.81-2.33-1.98-4.56-3.5-2.23-1.52-5.07-3.5-8.52-5.93l-1.82.91c-.41,1.42-.71,3.15-.91,5.17-.61,3.45-.91,8.01-.91,13.68,0,1.63.2,3.45.61,5.48,0,.41-.05.81-.15,1.22-.1.41-.15.91-.15,1.52,0,1.82.05,4.21.15,7.15.1,2.94.25,5.78.46,8.52.2,2.74.35,5.12.46,7.15.1,2.03.15,2.94.15,2.74,0,3.45-1.52,6.08-4.56,7.91-3.04,1.82-6.39,2.74-10.04,2.74-5.27,0-8.77-2.54-10.49-7.61-1.72-5.07-2.58-13.68-2.58-25.85,0-8.11.3-15.46.91-22.05.61-6.59.91-12.42.91-17.49v-5.17c0-1.01.15-2.74.45-5.17.31-2.43.61-5.17.91-8.21.31-3.04.61-6.13.91-9.28.3-3.14.45-5.83.45-8.06v-3.35c.2-.61.5-3.35.91-8.21.41-4.86,1.11-10.49,2.13-16.88,1.01-6.39,2.28-12.97,3.8-19.77,1.52-6.79,3.39-12.52,5.63-17.18,1.42-3.04,4.56-4.56,9.43-4.56,9.12,0,13.69,3.55,13.69,10.65,0,1.63-.41,4.67-1.22,9.12-.81,4.46-1.67,9.28-2.58,14.45-.91,5.17-1.72,10.19-2.43,15.05-.71,4.86-1.06,8.52-1.06,10.95-.41.61-1.32,8.21-2.74,22.81,3.04-2.02,5.83-4.11,8.36-6.24,2.53-2.13,5.22-4.3,8.06-6.54,2.84-2.23,6.18-4.61,10.04-7.15,3.85-2.53,8.62-5.42,14.29-8.67.41,0,.71-.05.91-.15.2-.1.5-.15.91-.15,3.04,0,6.08,1.42,9.12,4.26,3.04,2.84,4.56,6.08,4.56,9.73,0,2.23-.1,3.8-.3,4.71-.21.91-1.07,1.98-2.59,3.19-1.52,1.22-4,2.84-7.45,4.86-3.45,2.03-8.32,5.17-14.6,9.43-.41,1.02-3.75,3.35-10.04,6.99,2.43,2.03,4,3.34,4.71,3.95.71.61,1.67,1.57,2.89,2.89,1.22,1.32,3.29,3.55,6.24,6.69,2.94,3.15,7.95,8.26,15.05,15.36,3.85,5.27,8.21,12.16,13.08,20.68Z"/>
  </g>
</svg>