<svg width="308" height="48" viewBox="0 0 308 48" fill="none" xmlns="http://www.w3.org/2000/svg">
<rect width="308" height="48" rx="12" fill="#06BE34"/>
<rect x="20" width="61" height="48" rx="12" fill="#06BE34"/>
<rect width="41" height="41" transform="translate(30 3.5)" fill="#06BE34"/>
<path d="M60.3602 14.5V33.2267H53.5281L46.8321 23.8008V33.2267H40V14.5H46.8321L53.5281 24.3085V14.5H60.3602Z" fill="white"/>
<rect width="135" height="38" transform="translate(86 5)" fill="#06BE34"/>
<path d="M97.2837 17.765H99.2637V25.835H97.2837V17.765ZM97.2837 25.325H98.2587C99.9387 25.325 101.334 25.265 102.939 24.935L103.194 26.6C101.529 26.96 100.029 27.02 98.2587 27.02H97.2837V25.325ZM106.824 16.445H108.729V30.335H106.824V16.445ZM101.154 20.825H104.319V22.43H101.154V20.825ZM103.884 16.685H105.744V29.72H103.884V16.685ZM120.083 16.43H122.093V30.365H120.083V16.43ZM114.608 17.405C116.708 17.405 118.253 19.325 118.253 22.355C118.253 25.415 116.708 27.335 114.608 27.335C112.508 27.335 110.963 25.415 110.963 22.355C110.963 19.325 112.508 17.405 114.608 17.405ZM114.608 19.22C113.573 19.22 112.868 20.315 112.868 22.355C112.868 24.425 113.573 25.535 114.608 25.535C115.643 25.535 116.333 24.425 116.333 22.355C116.333 20.315 115.643 19.22 114.608 19.22ZM134.031 16.43H136.011V30.365H134.031V16.43ZM130.881 21.32H134.601V22.925H130.881V21.32ZM124.866 17.525H126.846V20.885H129.576V17.525H131.541V27.095H124.866V17.525ZM126.846 22.43V25.49H129.576V22.43H126.846ZM138.17 27.185H150.74V28.805H138.17V27.185ZM143.435 24.56H145.43V27.845H143.435V24.56ZM139.58 17.345H149.33V21.965H141.59V24.305H139.61V20.405H147.35V18.92H139.58V17.345ZM139.61 23.51H149.645V25.115H139.61V23.51ZM161.601 20.105H164.421V21.695H161.601V20.105ZM161.526 23.57H164.361V25.16H161.526V23.57ZM166.311 16.445H168.216V30.335H166.311V16.445ZM163.446 16.745H165.306V29.72H163.446V16.745ZM160.311 18.08H162.231C162.231 22.025 161.046 25.175 157.176 27.455L156.051 26.06C159.186 24.155 160.311 21.845 160.311 18.485V18.08ZM156.846 18.08H160.986V19.67H156.846V18.08ZM170.045 23.18H182.615V24.77H170.045V23.18ZM175.31 21.38H177.29V23.87H175.31V21.38ZM175.28 16.685H176.99V17.105C176.99 19.67 174.95 21.68 171.41 22.19L170.675 20.63C173.795 20.255 175.28 18.665 175.28 17.105V16.685ZM175.61 16.685H177.32V17.105C177.32 18.725 178.775 20.255 181.925 20.63L181.19 22.19C177.65 21.665 175.61 19.73 175.61 17.105V16.685ZM171.44 25.745H181.085V30.335H179.09V27.305H171.44V25.745ZM192.754 16.445H194.734V30.335H192.754V16.445ZM194.284 21.86H196.744V23.525H194.284V21.86ZM183.784 18.5H191.869V20.09H183.784V18.5ZM187.849 20.87C189.874 20.87 191.374 22.25 191.374 24.185C191.374 26.12 189.874 27.5 187.849 27.5C185.824 27.5 184.324 26.12 184.324 24.185C184.324 22.25 185.824 20.87 187.849 20.87ZM187.849 22.49C186.904 22.49 186.229 23.12 186.229 24.185C186.229 25.25 186.904 25.88 187.849 25.88C188.794 25.88 189.469 25.25 189.469 24.185C189.469 23.12 188.794 22.49 187.849 22.49ZM186.844 16.67H188.839V19.1H186.844V16.67ZM207.212 16.445H209.222V30.335H207.212V16.445ZM203.117 17.885H205.097C205.097 22.13 203.657 25.61 198.722 27.995L197.687 26.405C201.677 24.485 203.117 21.965 203.117 18.245V17.885ZM198.422 17.885H204.062V19.46H198.422V17.885Z" fill="white"/>
</svg>
