<svg width="308" height="48" viewBox="0 0 308 48" fill="none" xmlns="http://www.w3.org/2000/svg">
<rect width="308" height="48" rx="12" fill="#06BE34"/>
<rect width="288" height="17.4756" transform="translate(10 15.2622)" fill="#06BE34"/>
<path d="M105.5 15.2622V32.7378H99.1243L92.8757 23.9416V32.7378H86.5V15.2622H92.8757L99.1243 24.4154V15.2622H105.5Z" fill="white"/>
<path d="M115.031 18.514H116.879V26.046H115.031V18.514ZM115.031 25.57H115.941C117.509 25.57 118.811 25.514 120.309 25.206L120.547 26.76C118.993 27.096 117.593 27.152 115.941 27.152H115.031V25.57ZM123.935 17.282H125.713V30.246H123.935V17.282ZM118.643 21.37H121.597V22.868H118.643V21.37ZM121.191 17.506H122.927V29.672H121.191V17.506ZM136.31 17.268H138.186V30.274H136.31V17.268ZM131.2 18.178C133.16 18.178 134.602 19.97 134.602 22.798C134.602 25.654 133.16 27.446 131.2 27.446C129.24 27.446 127.798 25.654 127.798 22.798C127.798 19.97 129.24 18.178 131.2 18.178ZM131.2 19.872C130.234 19.872 129.576 20.894 129.576 22.798C129.576 24.73 130.234 25.766 131.2 25.766C132.166 25.766 132.81 24.73 132.81 22.798C132.81 20.894 132.166 19.872 131.2 19.872ZM149.329 17.268H151.177V30.274H149.329V17.268ZM146.389 21.832H149.861V23.33H146.389V21.832ZM140.775 18.29H142.623V21.426H145.171V18.29H147.005V27.222H140.775V18.29ZM142.623 22.868V25.724H145.171V22.868H142.623ZM153.192 27.306H164.924V28.818H153.192V27.306ZM158.106 24.856H159.968V27.922H158.106V24.856ZM154.508 18.122H163.608V22.434H156.384V24.618H154.536V20.978H161.76V19.592H154.508V18.122ZM154.536 23.876H163.902V25.374H154.536V23.876ZM175.061 20.698H177.693V22.182H175.061V20.698ZM174.991 23.932H177.637V25.416H174.991V23.932ZM179.457 17.282H181.235V30.246H179.457V17.282ZM176.783 17.562H178.519V29.672H176.783V17.562ZM173.857 18.808H175.649C175.649 22.49 174.543 25.43 170.931 27.558L169.881 26.256C172.807 24.478 173.857 22.322 173.857 19.186V18.808ZM170.623 18.808H174.487V20.292H170.623V18.808ZM182.942 23.568H194.674V25.052H182.942V23.568ZM187.856 21.888H189.704V24.212H187.856V21.888ZM187.828 17.506H189.424V17.898C189.424 20.292 187.52 22.168 184.216 22.644L183.53 21.188C186.442 20.838 187.828 19.354 187.828 17.898V17.506ZM188.136 17.506H189.732V17.898C189.732 19.41 191.09 20.838 194.03 21.188L193.344 22.644C190.04 22.154 188.136 20.348 188.136 17.898V17.506ZM184.244 25.962H193.246V30.246H191.384V27.418H184.244V25.962ZM204.137 17.282H205.985V30.246H204.137V17.282ZM205.565 22.336H207.861V23.89H205.565V22.336ZM195.765 19.2H203.311V20.684H195.765V19.2ZM199.559 21.412C201.449 21.412 202.849 22.7 202.849 24.506C202.849 26.312 201.449 27.6 199.559 27.6C197.669 27.6 196.269 26.312 196.269 24.506C196.269 22.7 197.669 21.412 199.559 21.412ZM199.559 22.924C198.677 22.924 198.047 23.512 198.047 24.506C198.047 25.5 198.677 26.088 199.559 26.088C200.441 26.088 201.071 25.5 201.071 24.506C201.071 23.512 200.441 22.924 199.559 22.924ZM198.621 17.492H200.483V19.76H198.621V17.492ZM217.632 17.282H219.508V30.246H217.632V17.282ZM213.81 18.626H215.658C215.658 22.588 214.314 25.836 209.708 28.062L208.742 26.578C212.466 24.786 213.81 22.434 213.81 18.962V18.626ZM209.428 18.626H214.692V20.096H209.428V18.626Z" fill="white"/>
</svg>
