<svg width="34" height="15" viewBox="0 0 34 15" fill="none" xmlns="http://www.w3.org/2000/svg">
<path d="M7.69757 5.39649C7.66824 5.66043 7.63158 5.89503 7.5876 6.10031C7.55827 6.30559 7.49229 6.50354 7.38965 6.69416C7.28701 6.87012 7.14771 7.06073 6.97175 7.26601C6.81046 7.45663 6.59785 7.67658 6.33392 7.92584C5.64476 8.57101 4.88229 8.94492 4.04651 9.04756C3.85589 9.12087 3.60662 9.20885 3.2987 9.31149C2.99078 9.39947 2.6242 9.50211 2.19898 9.61941L2.26496 11.049C2.29429 11.2543 2.31628 11.4596 2.33095 11.6649C2.34561 11.8702 2.35294 12.0974 2.35294 12.3467C2.35294 12.5227 2.35294 12.7133 2.35294 12.9186C2.35294 13.1238 2.32362 13.3145 2.26496 13.4904C2.22098 13.6664 2.12567 13.813 1.97904 13.9303C1.84707 14.0476 1.64912 14.1063 1.38519 14.1063C1.10659 14.1063 0.901314 14.0549 0.769348 13.9523C0.637382 13.8497 0.549405 13.703 0.505416 13.5124C0.461427 13.3365 0.432102 13.1238 0.417439 12.8746C0.417439 12.6253 0.395444 12.3614 0.351456 12.0828V12.1048C0.336793 11.9142 0.32213 11.6869 0.307467 11.4229C0.292804 11.1883 0.278141 10.9024 0.263478 10.5652C0.248815 10.2133 0.226821 9.8027 0.197495 9.33348V9.20152C0.197495 9.11354 0.190164 8.99624 0.175501 8.84961C0.175501 8.70298 0.168169 8.54902 0.153507 8.38773C0.138844 8.22643 0.124181 8.08714 0.109518 7.96983C0.109518 7.83787 0.109518 7.74989 0.109518 7.7059C0.109518 7.61792 0.109518 7.46396 0.109518 7.24402C0.124181 7.00941 0.131512 6.76014 0.131512 6.49621C0.146175 6.23228 0.153507 5.98301 0.153507 5.7484C0.168169 5.49913 0.175501 5.30852 0.175501 5.17655C0.175501 4.94194 0.160838 4.72933 0.131512 4.53872C0.116849 4.3481 0.094855 4.17214 0.0655291 4.01085C0.0655291 3.98152 0.0655291 3.88622 0.0655291 3.72492C0.080192 3.56363 0.094855 3.38768 0.109518 3.19706C0.124181 2.99178 0.146175 2.79383 0.175501 2.60321C0.204827 2.39793 0.241484 2.22931 0.285473 2.09734C0.681371 1.90672 1.15792 1.81142 1.71511 1.81142H1.89106C2.52156 1.6208 3.10808 1.52549 3.65061 1.52549C3.85589 1.52549 4.43507 1.61347 5.38816 1.78942L6.35591 2.31729C6.61984 2.47858 6.83246 2.6472 6.99375 2.82316C7.1697 2.98445 7.309 3.1824 7.41164 3.417C7.51428 3.65161 7.5876 3.9302 7.63158 4.25279C7.67557 4.56071 7.69757 4.94194 7.69757 5.39649ZM5.6301 5.70442C5.67409 5.42582 5.69608 5.17655 5.69608 4.95661C5.69608 4.56071 5.53479 4.20147 5.21221 3.87888C4.88962 3.54164 4.36176 3.37301 3.62861 3.37301C3.29137 3.37301 2.77817 3.49032 2.08901 3.72492C2.11834 4.00352 2.14033 4.34077 2.15499 4.73666C2.16966 5.1179 2.17699 5.56512 2.17699 6.07832C2.16232 6.10765 2.15499 6.25427 2.15499 6.51821C2.15499 6.65017 2.15499 6.81146 2.15499 7.00208C2.15499 7.17804 2.16232 7.38332 2.17699 7.61792C2.30895 7.60326 2.45558 7.57393 2.61687 7.52995C2.79283 7.48596 2.95412 7.44197 3.10075 7.39798C3.24738 7.33933 3.37201 7.28801 3.47465 7.24402C3.57729 7.20003 3.62861 7.17804 3.62861 7.17804C4.68434 6.92877 5.3515 6.43756 5.6301 5.70442ZM13.7553 2.51524C13.7846 2.63254 13.7993 2.74251 13.7993 2.84515C13.7993 3.31436 13.66 3.71026 13.3814 4.03285C12.9415 4.2088 12.5016 4.29678 12.0617 4.29678C11.7831 4.12082 11.5485 3.92287 11.3579 3.70293C11.182 3.46832 11.094 3.24105 11.094 3.02111C11.094 2.83049 11.3139 2.36127 11.7538 1.61347C11.9444 1.64279 12.1424 1.66479 12.3477 1.67945C12.5676 1.69411 12.7655 1.73077 12.9415 1.78942C13.1321 1.84807 13.2934 1.93605 13.4254 2.05335C13.572 2.15599 13.682 2.30995 13.7553 2.51524ZM13.0515 6.18829V6.47422C13.0515 6.54753 13.0515 6.62818 13.0515 6.71616C13.0515 6.80413 13.0368 6.88478 13.0075 6.95809L12.8315 7.94784V8.14579C12.8315 8.23377 12.8242 8.35107 12.8095 8.4977C12.7949 8.64433 12.7729 8.79096 12.7436 8.93758C12.7289 9.08421 12.7142 9.22351 12.6996 9.35548C12.6849 9.48744 12.6776 9.59741 12.6776 9.68539C12.6776 9.75871 12.6776 9.81736 12.6776 9.86135C12.6922 9.90534 12.6996 9.96399 12.6996 10.0373C12.6996 10.1693 12.6849 10.3159 12.6556 10.4772C12.6262 10.6238 12.6116 10.7924 12.6116 10.9831C12.6116 11.159 12.6336 11.3423 12.6776 11.5329C12.5163 12.1927 12.179 12.5227 11.6658 12.5227C10.9473 12.5227 10.5881 11.8482 10.5881 10.4992C10.5881 10.0446 10.6101 9.59741 10.6541 9.15753C10.6981 8.70298 10.7494 8.28509 10.808 7.90385C10.8667 7.52261 10.9254 7.1927 10.984 6.9141C11.0573 6.62085 11.116 6.39357 11.16 6.23228C11.3799 5.9097 11.6878 5.7484 12.0837 5.7484C12.465 5.7484 12.7875 5.89503 13.0515 6.18829ZM24.0397 10.7631C23.7611 11.3496 23.3066 11.8188 22.6761 12.1708C22.0456 12.508 21.3417 12.6766 20.5646 12.6766C20.462 12.6766 20.2933 12.662 20.0587 12.6326C19.8241 12.6033 19.5602 12.5447 19.2669 12.4567C18.9883 12.3687 18.6951 12.2514 18.3872 12.1048C18.0939 11.9435 17.8226 11.7382 17.5734 11.4889C17.3241 11.225 17.1188 10.9097 16.9575 10.5432C16.7962 10.1766 16.7156 9.74404 16.7156 9.24551C16.7009 8.58567 16.7889 7.9845 16.9795 7.44197C17.1848 6.89944 17.5074 6.34958 17.9473 5.79239L18.6511 4.89062C19.4722 4.33343 20.396 4.05484 21.4224 4.05484C21.9796 4.05484 22.4195 4.15748 22.742 4.36276C23.0793 4.56804 23.2479 4.8613 23.2479 5.24253C23.2479 5.53579 23.1379 5.77773 22.918 5.96835C22.7127 6.1443 22.4415 6.23228 22.1042 6.23228C22.0895 6.23228 22.0309 6.22495 21.9283 6.21029C21.8403 6.18096 21.7376 6.15163 21.6203 6.12231C21.503 6.09298 21.3857 6.07099 21.2684 6.05633C21.1511 6.027 21.0558 6.01234 20.9825 6.01234C20.6452 6.01234 20.2567 6.18829 19.8168 6.5402C19.3916 6.89211 19.0543 7.4493 18.8051 8.21177C18.7024 8.53435 18.6511 8.79829 18.6511 9.00357C18.6511 9.41413 18.7611 9.73671 18.981 9.97132C19.2156 10.2059 19.4722 10.3892 19.7508 10.5212C20.0294 10.6385 20.286 10.7191 20.5206 10.7631C20.7552 10.7924 20.8799 10.8071 20.8945 10.8071C21.0998 10.8071 21.3051 10.7485 21.5104 10.6311C21.7156 10.5138 21.8989 10.3819 22.0602 10.2353C22.2362 10.0886 22.3755 9.96399 22.4781 9.86135C22.5808 9.74404 22.6247 9.68539 22.6101 9.68539C22.7567 9.55343 22.9253 9.48744 23.1159 9.48744C23.3506 9.48744 23.5632 9.61208 23.7538 9.86135C23.9591 10.096 24.0617 10.3379 24.0617 10.5872C24.0617 10.6605 24.0544 10.7191 24.0397 10.7631ZM33.36 10.9611C33.3746 11.0197 33.382 11.071 33.382 11.115C33.3966 11.159 33.404 11.2103 33.404 11.269C33.404 11.5769 33.3087 11.8262 33.118 12.0168C32.9274 12.2074 32.7075 12.3027 32.4582 12.3027C32.2383 12.3027 32.0403 12.2074 31.8644 12.0168C31.6884 11.8262 31.4978 11.5842 31.2925 11.291C31.1019 10.9977 30.882 10.6751 30.6327 10.3232C30.3834 9.97132 30.0755 9.63407 29.7089 9.31149C29.6503 9.25284 29.5403 9.17219 29.379 9.06955C29.2177 8.95225 29.0124 8.80562 28.7632 8.62966L28.6312 8.69565C28.6019 8.79829 28.5799 8.92292 28.5652 9.06955C28.5212 9.31882 28.4992 9.64874 28.4992 10.0593C28.4992 10.1766 28.5139 10.3086 28.5432 10.4552C28.5432 10.4845 28.5359 10.5138 28.5212 10.5432C28.5212 10.5725 28.5212 10.6092 28.5212 10.6531C28.5212 10.7851 28.5212 10.9611 28.5212 11.181C28.5359 11.3863 28.5506 11.5916 28.5652 11.7968C28.5799 11.9875 28.5872 12.1561 28.5872 12.3027C28.6019 12.4493 28.6092 12.5153 28.6092 12.5007C28.6092 12.7499 28.4992 12.9406 28.2793 13.0725C28.0593 13.2045 27.8174 13.2705 27.5535 13.2705C27.1722 13.2705 26.9156 13.0872 26.7837 12.7206C26.6664 12.354 26.6077 11.7309 26.6077 10.8511C26.6077 10.2646 26.6297 9.73671 26.6737 9.2675C26.7177 8.78362 26.7397 8.3584 26.7397 7.99183V7.61792C26.7397 7.54461 26.747 7.41997 26.7617 7.24402C26.791 7.06807 26.813 6.87012 26.8277 6.65017C26.857 6.43023 26.879 6.21029 26.8936 5.99034C26.923 5.75574 26.9376 5.55779 26.9376 5.39649V5.15456C26.9523 5.11057 26.9743 4.91262 27.0036 4.56071C27.0329 4.2088 27.0843 3.80557 27.1576 3.35102C27.2309 2.88181 27.3189 2.40526 27.4215 1.92139C27.5388 1.42285 27.6781 1.00496 27.8394 0.66771C27.942 0.447766 28.1693 0.337794 28.5212 0.337794C29.1811 0.337794 29.511 0.594395 29.511 1.1076C29.511 1.2249 29.4816 1.44484 29.423 1.76743C29.3643 2.09001 29.2984 2.44192 29.225 2.82316C29.1664 3.18973 29.1077 3.54897 29.0491 3.90088C29.0051 4.25279 28.9831 4.51672 28.9831 4.69268C28.9538 4.73666 28.8878 5.28652 28.7852 6.34225C29.0051 6.19562 29.2031 6.04899 29.379 5.90236C29.5696 5.74107 29.7676 5.57978 29.9729 5.41849C30.1781 5.2572 30.4201 5.08857 30.6987 4.91262C30.9773 4.722 31.3218 4.50939 31.7324 4.27478C31.7617 4.27478 31.7837 4.27478 31.7984 4.27478C31.8131 4.26012 31.835 4.25279 31.8644 4.25279C32.0843 4.25279 32.3043 4.35543 32.5242 4.56071C32.7441 4.76599 32.8541 5.0006 32.8541 5.26453C32.8541 5.42582 32.8468 5.54312 32.8321 5.61644C32.8175 5.67509 32.7515 5.7484 32.6342 5.83638C32.5315 5.92436 32.3556 6.04166 32.1063 6.18829C31.857 6.33492 31.5051 6.5622 31.0506 6.87012C31.0213 6.94343 30.7793 7.11205 30.3248 7.37599C30.5007 7.52261 30.6107 7.61792 30.6547 7.66191C30.7133 7.7059 30.7866 7.77922 30.8746 7.88186C30.9626 7.96983 31.1092 8.13113 31.3145 8.36573C31.5345 8.58567 31.901 8.95225 32.4142 9.46545C32.6928 9.84668 33.0081 10.3452 33.36 10.9611Z" fill="#9CD300"/>
</svg>
